<svg xmlns="http://www.w3.org/2000/svg" width="348.506" height="34" viewBox="0 0 348.506 34">
  <g id="グループ_9508" data-name="グループ 9508" transform="translate(-544.389 -3635)">
    <g id="グループ_9503" data-name="グループ 9503">
      <path id="パス_1733" data-name="パス 1733" d="M560.148,3648.863c-.117.607-1.378,1.167-1.378,1.167,1.658,1.261,2.288,1.167,2.288,1.167C560.358,3650.66,560.148,3648.863,560.148,3648.863Z" fill="#fff"/>
      <path id="パス_1734" data-name="パス 1734" d="M564.681,3648.127l.042,1.473a2.065,2.065,0,0,0,1.157-.674A5.471,5.471,0,0,1,564.681,3648.127Z" fill="#fff"/>
      <path id="パス_1735" data-name="パス 1735" d="M564.071,3650.03s-1.26-.56-1.377-1.167c0,0-.21,1.8-.911,2.334C561.783,3651.2,562.414,3651.291,564.071,3650.03Z" fill="#fff"/>
      <path id="パス_1736" data-name="パス 1736" d="M563.557,3643.072a1.678,1.678,0,0,1-1.237.117,8.609,8.609,0,0,0,3.759,5.463S566.359,3646.038,563.557,3643.072Z" fill="#fff"/>
      <path id="パス_1737" data-name="パス 1737" d="M564.281,3647.558a16.028,16.028,0,0,1-1.3-1.578v1.768s-.337,1.326,1.3,1.831Z" fill="#fff"/>
      <path id="パス_1738" data-name="パス 1738" d="M558.561,3649.579c1.641-.506,1.3-1.831,1.3-1.831v-1.768a16.028,16.028,0,0,1-1.3,1.578Z" fill="#fff"/>
      <path id="パス_1739" data-name="パス 1739" d="M559.129,3642.823a.976.976,0,0,1-.4-.989s-2.862-.21-5.346,2.946C553.383,3644.78,555.719,3645.706,559.129,3642.823Z" fill="#fff"/>
      <path id="パス_1740" data-name="パス 1740" d="M559.284,3643.072c-2.8,2.966-2.522,5.58-2.522,5.58a8.609,8.609,0,0,0,3.759-5.463A1.678,1.678,0,0,1,559.284,3643.072Z" fill="#fff"/>
      <path id="パス_1741" data-name="パス 1741" d="M556.792,3646.464a10.732,10.732,0,0,1,1.053-2.231,8.558,8.558,0,0,1-2.4,1c-.716.442-1.053,2.091-1.053,2.091A6.017,6.017,0,0,0,556.792,3646.464Z" fill="#fff"/>
      <path id="パス_1742" data-name="パス 1742" d="M554.773,3645.412a9.456,9.456,0,0,1-1.495-.19s-.042,1.347.758,1.705A4.114,4.114,0,0,1,554.773,3645.412Z" fill="#fff"/>
      <path id="パス_1743" data-name="パス 1743" d="M558.118,3649.6l.043-1.473a5.458,5.458,0,0,1-1.2.8A2.073,2.073,0,0,0,558.118,3649.6Z" fill="#fff"/>
      <path id="パス_1744" data-name="パス 1744" d="M556.393,3647.221a11.18,11.18,0,0,1-1.663.527,2.973,2.973,0,0,0,1.494.82A6.149,6.149,0,0,1,556.393,3647.221Z" fill="#fff"/>
      <path id="パス_1745" data-name="パス 1745" d="M568.069,3645.412a4.131,4.131,0,0,1,.737,1.515c.8-.358.757-1.705.757-1.705A9.3,9.3,0,0,1,568.069,3645.412Z" fill="#fff"/>
      <path id="パス_1746" data-name="パス 1746" d="M564.113,3641.834a.979.979,0,0,1-.4.989c3.409,2.883,5.745,1.957,5.745,1.957C566.975,3641.624,564.113,3641.834,564.113,3641.834Z" fill="#fff"/>
      <path id="パス_1747" data-name="パス 1747" d="M555.4,3640.95l-.526-.315s-.211.084-.674.715A5.941,5.941,0,0,1,555.4,3640.95Z" fill="#fff"/>
      <path id="パス_1748" data-name="パス 1748" d="M553.278,3642.992c-.421.442-.232,1.494-.232,1.494l1.3-1.305A3.088,3.088,0,0,1,553.278,3642.992Z" fill="#fff"/>
      <path id="パス_1749" data-name="パス 1749" d="M554.877,3642.781c.4-.274,2.084-1.157,2.084-1.157a5.243,5.243,0,0,0-1.263-.316,2.432,2.432,0,0,0-2.239,1.137s-.14.187.3.357A1.648,1.648,0,0,0,554.877,3642.781Z" fill="#fff"/>
      <path id="パス_1750" data-name="パス 1750" d="M568.49,3643.181l1.3,1.305s.189-1.052-.232-1.494A3.088,3.088,0,0,1,568.49,3643.181Z" fill="#fff"/>
      <path id="パス_1751" data-name="パス 1751" d="M565,3644.233a10.732,10.732,0,0,1,1.053,2.231,6.024,6.024,0,0,0,2.4.863s-.337-1.649-1.053-2.091A8.559,8.559,0,0,1,565,3644.233Z" fill="#fff"/>
      <path id="パス_1752" data-name="パス 1752" d="M565.88,3641.624s1.684.883,2.084,1.157a1.649,1.649,0,0,0,1.115.021c.443-.17.3-.357.3-.357a2.43,2.43,0,0,0-2.239-1.137A5.256,5.256,0,0,0,565.88,3641.624Z" fill="#fff"/>
      <path id="パス_1753" data-name="パス 1753" d="M567.438,3640.95a5.949,5.949,0,0,1,1.2.4c-.463-.631-.673-.715-.673-.715Z" fill="#fff"/>
      <path id="パス_1754" data-name="パス 1754" d="M566.448,3647.222a6.136,6.136,0,0,1,.169,1.346,2.973,2.973,0,0,0,1.494-.82A11.227,11.227,0,0,1,566.448,3647.222Z" fill="#fff"/>
      <path id="パス_1755" data-name="パス 1755" d="M561.053,3655.186c.263-2.066-.133-2.565-.133-2.565-.115.875-1.566,1.956-1.566,1.956C559.938,3654.374,561.053,3655.186,561.053,3655.186Z" fill="#fff"/>
      <path id="パス_1756" data-name="パス 1756" d="M556.543,3649.58a5.477,5.477,0,0,1-.093,1.439l1.254-.773A2.065,2.065,0,0,0,556.543,3649.58Z" fill="#fff"/>
      <path id="パス_1757" data-name="パス 1757" d="M558.081,3652.372s1.662-.717,2.477-.379c0,0-.235-.593-2.155-1.4C558.4,3650.595,558.548,3651.967,558.081,3652.372Z" fill="#fff"/>
      <path id="パス_1758" data-name="パス 1758" d="M556.206,3649.545s-2.4,1.065-3.572,4.974a1.682,1.682,0,0,1,.72,1.013A8.611,8.611,0,0,0,556.206,3649.545Z" fill="#fff"/>
      <path id="パス_1759" data-name="パス 1759" d="M557.907,3650.639l-1.749,1.01a16.039,16.039,0,0,1-.715,1.919l1.531-.884A1.561,1.561,0,0,0,557.907,3650.639Z" fill="#fff"/>
      <path id="パス_1760" data-name="パス 1760" d="M560.767,3655.593a1.561,1.561,0,0,0-2.237-.214l-1.531.883a16.136,16.136,0,0,1,2.019.341Z" fill="#fff"/>
      <path id="パス_1761" data-name="パス 1761" d="M554.633,3658.479a.98.98,0,0,1-.657.841s1.249,2.583,5.225,3.156C559.2,3662.476,558.835,3659.99,554.633,3658.479Z" fill="#fff"/>
      <path id="パス_1762" data-name="パス 1762" d="M560.864,3657.614a8.609,8.609,0,0,0-6.61-.524,1.682,1.682,0,0,1,.517,1.13C558.74,3659.164,560.864,3657.614,560.864,3657.614Z" fill="#fff"/>
      <path id="パス_1763" data-name="パス 1763" d="M560.9,3660.328a6,6,0,0,0-1.947-1.646,10.709,10.709,0,0,1-2.458.2,8.528,8.528,0,0,1,2.068,1.576C559.3,3660.86,560.9,3660.328,560.9,3660.328Z" fill="#fff"/>
      <path id="パス_1764" data-name="パス 1764" d="M559.053,3660.957a9.4,9.4,0,0,1,.583,1.389s1.187-.637,1.1-1.509A4.141,4.141,0,0,1,559.053,3660.957Z" fill="#fff"/>
      <path id="パス_1765" data-name="パス 1765" d="M561.007,3655.965l-1.3.7a5.461,5.461,0,0,1,1.292.638A2.066,2.066,0,0,0,561.007,3655.965Z" fill="#fff"/>
      <path id="パス_1766" data-name="パス 1766" d="M559.81,3658.649a11.243,11.243,0,0,1,1.287,1.177,2.975,2.975,0,0,0-.037-1.7A6.176,6.176,0,0,1,559.81,3658.649Z" fill="#fff"/>
      <path id="パス_1767" data-name="パス 1767" d="M553.348,3648.046c-.709-.513-1.855.2-1.855.2a9.375,9.375,0,0,1,.911,1.2A4.151,4.151,0,0,1,553.348,3648.046Z" fill="#fff"/>
      <path id="パス_1768" data-name="パス 1768" d="M551.284,3654.657a.98.98,0,0,1,1.057-.148c.792-4.394-1.177-5.954-1.177-5.954C549.671,3652.284,551.284,3654.657,551.284,3654.657Z" fill="#fff"/>
      <path id="パス_1769" data-name="パス 1769" d="M555.82,3663.48a5.924,5.924,0,0,1-.946-.839l-.011.614A2.22,2.22,0,0,0,555.82,3663.48Z" fill="#fff"/>
      <path id="パス_1770" data-name="パス 1770" d="M557.7,3663.461c.593.144,1.41-.546,1.41-.546l-1.783-.478A3.077,3.077,0,0,1,557.7,3663.461Z" fill="#fff"/>
      <path id="パス_1771" data-name="パス 1771" d="M556.722,3662.181c-.437-.209-2.044-1.225-2.044-1.225a5.271,5.271,0,0,0,.358,1.251,2.432,2.432,0,0,0,2.1,1.371s.232.028.158-.442A1.655,1.655,0,0,0,556.722,3662.181Z" fill="#fff"/>
      <path id="パス_1772" data-name="パス 1772" d="M549.561,3649.358a3.073,3.073,0,0,1,.7.835l.478-1.783S549.734,3648.772,549.561,3649.358Z" fill="#fff"/>
      <path id="パス_1773" data-name="パス 1773" d="M552.589,3650.113a8.522,8.522,0,0,1,.331,2.579,10.667,10.667,0,0,1,1.406-2.027,6.019,6.019,0,0,0-.452-2.509S552.614,3649.272,552.589,3650.113Z" fill="#fff"/>
      <path id="パス_1774" data-name="パス 1774" d="M549.64,3649.872c-.37-.3-.461-.084-.461-.084a2.431,2.431,0,0,0,.135,2.508,5.26,5.26,0,0,0,.9.935s-.076-1.9-.039-2.382A1.653,1.653,0,0,0,549.64,3649.872Z" fill="#fff"/>
      <path id="パス_1775" data-name="パス 1775" d="M548.6,3650.98a2.231,2.231,0,0,0-.283.942l.536.3A5.945,5.945,0,0,1,548.6,3650.98Z" fill="#fff"/>
      <path id="パス_1776" data-name="パス 1776" d="M554.782,3649.94a6.182,6.182,0,0,1,1.082-.819,2.98,2.98,0,0,0-1.458-.884A11.2,11.2,0,0,1,554.782,3649.94Z" fill="#fff"/>
      <path id="パス_1777" data-name="パス 1777" d="M561.724,3655.186s1.116-.812,1.7-.609c0,0-1.452-1.081-1.567-1.956C561.857,3652.621,561.461,3653.12,561.724,3655.186Z" fill="#fff"/>
      <path id="パス_1778" data-name="パス 1778" d="M566.328,3651.019a5.477,5.477,0,0,1-.093-1.439,2.069,2.069,0,0,0-1.162.666Z" fill="#fff"/>
      <path id="パス_1779" data-name="パス 1779" d="M564.375,3650.595c-1.921.8-2.155,1.4-2.155,1.4.815-.338,2.477.379,2.477.379C564.23,3651.967,564.375,3650.595,564.375,3650.595Z" fill="#fff"/>
      <path id="パス_1780" data-name="パス 1780" d="M570.143,3654.519c-1.167-3.909-3.571-4.974-3.571-4.974a8.611,8.611,0,0,0,2.852,5.987A1.678,1.678,0,0,1,570.143,3654.519Z" fill="#fff"/>
      <path id="パス_1781" data-name="パス 1781" d="M566.62,3651.649l-1.75-1.01a1.562,1.562,0,0,0,.934,2.045l1.53.884A15.985,15.985,0,0,1,566.62,3651.649Z" fill="#fff"/>
      <path id="パス_1782" data-name="パス 1782" d="M562.01,3655.593l1.75,1.01a16.1,16.1,0,0,1,2.019-.341l-1.531-.883A1.562,1.562,0,0,0,562.01,3655.593Z" fill="#fff"/>
      <path id="パス_1783" data-name="パス 1783" d="M568.144,3658.479c-4.2,1.511-4.567,4-4.567,4,3.975-.572,5.224-3.156,5.224-3.156A.98.98,0,0,1,568.144,3658.479Z" fill="#fff"/>
      <path id="パス_1784" data-name="パス 1784" d="M561.913,3657.614s2.125,1.549,6.093.606a1.685,1.685,0,0,1,.518-1.13A8.611,8.611,0,0,0,561.913,3657.614Z" fill="#fff"/>
      <path id="パス_1785" data-name="パス 1785" d="M561.877,3660.328s1.6.532,2.337.134a8.529,8.529,0,0,1,2.068-1.576,10.663,10.663,0,0,1-2.458-.205A6.013,6.013,0,0,0,561.877,3660.328Z" fill="#fff"/>
      <path id="パス_1786" data-name="パス 1786" d="M563.142,3662.346a9.4,9.4,0,0,1,.583-1.389,4.144,4.144,0,0,1-1.681-.12C561.954,3661.709,563.142,3662.346,563.142,3662.346Z" fill="#fff"/>
      <path id="パス_1787" data-name="パス 1787" d="M561.771,3655.965a2.073,2.073,0,0,0,0,1.34,5.455,5.455,0,0,1,1.293-.639Z" fill="#fff"/>
      <path id="パス_1788" data-name="パス 1788" d="M562.968,3658.649a6.165,6.165,0,0,1-1.251-.528,2.979,2.979,0,0,0-.036,1.7A11.073,11.073,0,0,1,562.968,3658.649Z" fill="#fff"/>
      <path id="パス_1789" data-name="パス 1789" d="M569.429,3648.047a4.127,4.127,0,0,1,.944,1.395,9.477,9.477,0,0,1,.911-1.2S570.139,3647.533,569.429,3648.047Z" fill="#fff"/>
      <path id="パス_1790" data-name="パス 1790" d="M571.545,3655.424s-1-1.129-1.5-.3a.865.865,0,0,0,.558,1.391s1.991.76,3.506-1.864a4.227,4.227,0,0,0,.331-2.425A6.3,6.3,0,0,0,571.545,3655.424Z" fill="#fff"/>
      <path id="パス_1791" data-name="パス 1791" d="M571.614,3648.555s-1.969,1.56-1.177,5.954a.976.976,0,0,1,1.056.148S573.106,3652.284,571.614,3648.555Z" fill="#fff"/>
      <path id="パス_1792" data-name="パス 1792" d="M566.958,3663.48a2.227,2.227,0,0,0,.957-.225l-.011-.614A5.969,5.969,0,0,1,566.958,3663.48Z" fill="#fff"/>
      <path id="パス_1793" data-name="パス 1793" d="M565.446,3662.437l-1.782.478s.816.69,1.41.546A3.091,3.091,0,0,1,565.446,3662.437Z" fill="#fff"/>
      <path id="パス_1794" data-name="パス 1794" d="M568.1,3660.956s-1.606,1.016-2.043,1.225a1.655,1.655,0,0,0-.576.955c-.074.47.157.442.157.442a2.433,2.433,0,0,0,2.1-1.371A5.258,5.258,0,0,0,568.1,3660.956Z" fill="#fff"/>
      <path id="パス_1795" data-name="パス 1795" d="M568.53,3658.021c-.468.863,1.013,1.151,1.013,1.151a6.449,6.449,0,0,0-1.361,4.083,4.57,4.57,0,0,0,1.971-1.479c1.515-2.624-.139-3.968-.139-3.968A.865.865,0,0,0,568.53,3658.021Z" fill="#fff"/>
      <path id="パス_1796" data-name="パス 1796" d="M572.515,3650.193a3.092,3.092,0,0,1,.7-.835c-.172-.586-1.178-.948-1.178-.948Z" fill="#fff"/>
      <path id="パス_1797" data-name="パス 1797" d="M569.857,3652.692a8.556,8.556,0,0,1,.331-2.579c-.024-.841-1.284-1.957-1.284-1.957a6,6,0,0,0-.452,2.509A10.7,10.7,0,0,1,569.857,3652.692Z" fill="#fff"/>
      <path id="パス_1798" data-name="パス 1798" d="M573.138,3649.872a1.653,1.653,0,0,0-.539.977c.037.482-.04,2.382-.04,2.382a5.257,5.257,0,0,0,.9-.935,2.431,2.431,0,0,0,.135-2.508S573.507,3649.574,573.138,3649.872Z" fill="#fff"/>
      <path id="パス_1799" data-name="パス 1799" d="M574.457,3651.922a2.212,2.212,0,0,0-.282-.942,5.9,5.9,0,0,1-.254,1.239Z" fill="#fff"/>
      <path id="パス_1800" data-name="パス 1800" d="M567.995,3649.941a11.176,11.176,0,0,1,.376-1.7,2.968,2.968,0,0,0-1.457.883A6.118,6.118,0,0,1,567.995,3649.941Z" fill="#fff"/>
      <path id="パス_1801" data-name="パス 1801" d="M561.389,3635a17,17,0,1,0,17,17A17.019,17.019,0,0,0,561.389,3635Zm14.058,17a14.026,14.026,0,0,1-.467,3.595,5.177,5.177,0,0,1-2.393,1.338,2.989,2.989,0,0,1-2.126-.174c-.528-.293-1.726-1.638-2.679-2.21a13.493,13.493,0,0,0-1.524-1.006c-3.134-1.81-4.18-1.214-4.18-1.214s.007,1.2,3.141,3.014a12.153,12.153,0,0,0,2.081.986,26.572,26.572,0,0,0,2.814,1.031,3.558,3.558,0,0,1,1.234,1.721,7.087,7.087,0,0,1-.047,2.878,14.034,14.034,0,0,1-19.976-.154,5.075,5.075,0,0,1,.058-2.632,2.994,2.994,0,0,1,1.214-1.754c.518-.311,2.282-.676,3.254-1.215a13.816,13.816,0,0,0,1.633-.817c3.133-1.81,3.141-3.014,3.141-3.014s-1.047-.6-4.181,1.214a12.161,12.161,0,0,0-1.894,1.309,26.429,26.429,0,0,0-2.3,1.922,3.554,3.554,0,0,1-2.108.208,6.882,6.882,0,0,1-2.328-1.366,14.058,14.058,0,0,1,10.209-17.31,4.888,4.888,0,0,1,2.082,1.3,2.985,2.985,0,0,1,.912,1.928c.01.6-.555,2.314-.574,3.425a13.63,13.63,0,0,0-.11,1.823c0,3.619,1.04,4.227,1.04,4.227s1.039-.608,1.039-4.227a12.039,12.039,0,0,0-.187-2.3,26.278,26.278,0,0,0-.514-2.953,3.557,3.557,0,0,1,.874-1.928,6.662,6.662,0,0,1,2.229-1.29A14.083,14.083,0,0,1,575.447,3652Z" fill="#fff"/>
      <path id="パス_1802" data-name="パス 1802" d="M559.812,3642.764a.864.864,0,0,0,.926-1.178s-.337-2.1-3.367-2.1a4.223,4.223,0,0,0-2.266.925,6.293,6.293,0,0,0,4.215.906S558.84,3642.739,559.812,3642.764Z" fill="#fff"/>
      <path id="パス_1803" data-name="パス 1803" d="M565.517,3639.341c-3.03,0-3.367,2.1-3.367,2.1a.864.864,0,0,0,.926,1.178c.982-.025.492-1.452.492-1.452a6.442,6.442,0,0,0,4.215-.863A4.567,4.567,0,0,0,565.517,3639.341Z" fill="#fff"/>
      <path id="パス_1804" data-name="パス 1804" d="M553.212,3659.025s1.475-.3,1.011-1.152a.864.864,0,0,0-1.483-.212s-1.654,1.343-.139,3.968a4.224,4.224,0,0,0,1.934,1.5A6.3,6.3,0,0,0,553.212,3659.025Z" fill="#fff"/>
      <path id="パス_1805" data-name="パス 1805" d="M550.967,3655.417a6.45,6.45,0,0,0-2.856-3.22,4.571,4.571,0,0,0,.295,2.446c1.515,2.625,3.506,1.864,3.506,1.864a.865.865,0,0,0,.558-1.391C551.957,3654.278,550.967,3655.417,550.967,3655.417Z" fill="#fff"/>
    </g>
    <g id="グループ_9669" data-name="グループ 9669">
      <g id="グループ_9507" data-name="グループ 9507">
        <g id="グループ_9504" data-name="グループ 9504">
          <path id="パス_1806" data-name="パス 1806" d="M602.57,3648.268c-.12,1.74-.1,4.5-.08,5.64.06,1.541.08,2.561.1,3.141a3.487,3.487,0,0,1-.16,1.32,1.278,1.278,0,0,1-2.22.18c-.14-.24-.5-.779-.66-1-.341-.44-.06-.981.48-.86a2.849,2.849,0,0,1,.68.36v-2.74a2.534,2.534,0,0,1-.46.04.853.853,0,0,1-.84-.64.545.545,0,0,1,.66-.681,3.605,3.605,0,0,1,.62.14c0-.5,0-1.02-.02-1.52a1.835,1.835,0,0,1-.36.02.846.846,0,0,1-.84-.641.555.555,0,0,1,.66-.679,2.439,2.439,0,0,1,.5.1c-.02-.84-.08-1.62-.14-2.28-.14,0-.26-.021-.34-.021l-.82.061c0,.26-.04.5-.06.74-.02.26.02,1.76-.061,2.782a12.963,12.963,0,0,1-.4,2.56,7.761,7.761,0,0,1-1.581,3.3c-.52.479-1.24.159-.98-.641a15.582,15.582,0,0,0,.94-5.261,18.978,18.978,0,0,0-.2-2.821,9.178,9.178,0,0,0-.28-1.3.865.865,0,0,1,.62-1.179,1.7,1.7,0,0,1,1.7.62,3.079,3.079,0,0,1,.2.36,5.865,5.865,0,0,0,.581-.1,2.122,2.122,0,0,0,1-.481c.24-.2.6-.74,1.3-.621a1.6,1.6,0,0,1,1.06,1.182A.774.774,0,0,1,602.57,3648.268Zm9.843,5.32a1.28,1.28,0,0,1-1.361.52.733.733,0,0,1-.48.621,16.892,16.892,0,0,0,0,2.26,3.118,3.118,0,0,1-.1,1.64,1.142,1.142,0,0,1-.96.8c-.86.1-1.18-.58-1.52-.941-.341-.319-.461-.66-.261-.94.341-.42,1.041.08,1.041.08a16.472,16.472,0,0,0-.14-2.92h-.04a6.925,6.925,0,0,0-1-.021c-.139.261-.34,1.06-.68,1.781a4.6,4.6,0,0,1-1.68,2.14c-.64.38-1.12-.2-.86-.7a15.87,15.87,0,0,0,1.16-2.98,2.246,2.246,0,0,1-.52.04.9.9,0,0,1-.82-.62.544.544,0,0,1,.66-.661c.44.06.66.16.9.2.04-.221.06-.461.1-.681a.881.881,0,0,1,1.441-.56,1.208,1.208,0,0,1,.58,1.081,1.522,1.522,0,0,0,.7-.4,1.826,1.826,0,0,1,.92-.58.9.9,0,0,0-.1-.141,4.021,4.021,0,0,1-.62-.919h-.28c-.64,0-1.461,0-2.221.041a6.624,6.624,0,0,1-1.62,1.639c-.66.46-1.26-.1-.82-.761.12-.2.26-.4.4-.639a1.631,1.631,0,0,1-.36.04.85.85,0,0,1-.841-.641.544.544,0,0,1,.66-.679c.421.04.681.16,1.1.22.26-.56.52-1.16.74-1.781-.1.02-.22.041-.36.061-.62.08-.54.179-1,.179a.865.865,0,0,1-.84-.64.55.55,0,0,1,.66-.68,13,13,0,0,0,1.58.26h.24a9.983,9.983,0,0,0,.54-2.88.955.955,0,0,1,1.521-.72,1.5,1.5,0,0,1,.48,2.14c-.081.18-.2.7-.36,1.26a3.419,3.419,0,0,0,1.26-.38.5.5,0,0,1,0-.6,8.2,8.2,0,0,0,.7-1.7.864.864,0,0,1,1.26-.581,1.093,1.093,0,0,1,.24,1.781c-.14.14-.28.34-.46.54a1.639,1.639,0,0,1,.841,1.08c.12.6-.381,1.061-1.3.96-.42-.039-1.38-.119-1.72-.14-.14,0-.72-.02-1.141-.02a13.542,13.542,0,0,1-.859,1.861c.54-.041,1.1-.08,1.56-.1a2.816,2.816,0,0,1-.24-1.22c.079-.621.78-.541,1.08-.061.14.2.34.5.56.8a1.621,1.621,0,0,1,1.38-.621,1.592,1.592,0,0,1,1.14,1.181c.1.58-.359,1.02-1.2.98a6.134,6.134,0,0,0,1.06.8A.66.66,0,0,1,612.413,3653.588Zm-9.283-8c-.179-.56.361-.94.881-.58a3.77,3.77,0,0,1,1.4,1.381,1.017,1.017,0,0,1-1.06,1.541c-.48-.08-.74-.421-.84-1.081A6.237,6.237,0,0,0,603.13,3645.586Z" fill="#fff"/>
          <path id="パス_1807" data-name="パス 1807" d="M629.532,3654.629c-.42-.041-1.38-.121-1.72-.141-.18,0-.44,0-.76-.019-.441,0-1.5,0-2.761.019.04.941.1,1.741.14,2.041a7.629,7.629,0,0,1,.06,1.9,1.527,1.527,0,0,1-1.62,1.5c-1.02,0-1.461-.981-1.7-1.381-.18-.34-.74-.9-.4-1.36.439-.58,1.12.02,1.419.241.06-.942.081-1.942.06-2.922-2.38.02-4.76.06-5,.1-.621.08-.521.181-1,.181a.869.869,0,0,1-.841-.641.561.561,0,0,1,.68-.679,9.362,9.362,0,0,0,1.56.26c.141,0,2.321,0,4.581-.041-.02-.94-.08-1.86-.16-2.6v-.02c-2.12.039-4.2.08-4.441.1-.62.1-.54.2-1,.18a.846.846,0,0,1-.84-.641.556.556,0,0,1,.66-.68,8.152,8.152,0,0,0,1.581.26c.12,0,1.96,0,3.941-.019-.08-.58-.2-1.2-.261-1.6a3.13,3.13,0,0,1-.06-.54,7.411,7.411,0,0,1-3.06-.2c-.2-.08-.62-.24-.6-.681a.622.622,0,0,1,.62-.6,19.753,19.753,0,0,0,3.921-.8,12.733,12.733,0,0,0,2.72-1.341c.88-.58,1.881.4,1.52,1.521a1.827,1.827,0,0,1-1.46,1.34,8.912,8.912,0,0,0-.92.24c-.08.02-.18.06-.3.081a1.474,1.474,0,0,1,.36.839,7.445,7.445,0,0,1-.08,1.7c1.04-.021,1.941-.06,2.36-.081a2.524,2.524,0,0,0,1.241-.479,1.609,1.609,0,0,1,1.38-.6,1.571,1.571,0,0,1,1.12,1.161c.12.62-.38,1.08-1.3.98-.44-.06-1.38-.14-1.72-.16h-.761c-.44-.021-1.34,0-2.4,0-.04.72-.04,1.681-.02,2.62,1.28-.02,2.38-.06,2.841-.1a2.343,2.343,0,0,0,1.22-.46,1.382,1.382,0,0,1,2.521.56C630.973,3654.289,630.452,3654.729,629.532,3654.629Z" fill="#fff"/>
          <path id="パス_1808" data-name="パス 1808" d="M639.864,3653.129a.7.7,0,0,1,.06.719c-.239.621-.76,1.4-.98,2.081a1.444,1.444,0,0,1-1.6,1.139,2.041,2.041,0,0,1-1.62-1.059c-.44-.72-.721-1.441-.661-3.721a16.467,16.467,0,0,0-.22-4.841c-.16-.6.22-1.02,1.021-.98a2.214,2.214,0,0,1,1.98,1.381,2.418,2.418,0,0,1-.12,1.719,10.729,10.729,0,0,0-.34,4.381c.18-.12,1.24-.76,1.48-.9A.7.7,0,0,1,639.864,3653.129Zm8.222-3.082a1.511,1.511,0,0,1-.92,1.24,9.886,9.886,0,0,0-1.4.9.79.79,0,0,1-1.06-.04.658.658,0,0,1,0-.76c.06-.14.259-.46.379-.66a4.715,4.715,0,0,0,.281-.54,1.216,1.216,0,0,0-.4.08,5.074,5.074,0,0,0-1.18.74,2.419,2.419,0,0,1-1.56.5,1.967,1.967,0,0,1-1.8-1.78c.019-.8.78-.7,1.28-.72a6.1,6.1,0,0,0,2.6-.561,2.784,2.784,0,0,1,2.9.08A1.711,1.711,0,0,1,648.086,3650.047Zm-1.14,6.282a1.546,1.546,0,0,1,.4,1.46,1.6,1.6,0,0,1-1.6,1.041,5.248,5.248,0,0,1-3.161-1.06,5.025,5.025,0,0,1-1.94-2.481.9.9,0,0,1,.02-.74c.24-.381.7-.34,1.06,0a5.561,5.561,0,0,0,3.081,1.2A2.245,2.245,0,0,1,646.946,3656.329Z" fill="#fff"/>
          <path id="パス_1809" data-name="パス 1809" d="M655.53,3648.407c-.02.361-.1.74-.14,1.12-.04.321-.02,1.861-.18,3.061-.3,2.48-1.36,5.021-2.641,5.842-.62.42-1.28-.08-.98-.84a19.214,19.214,0,0,0,1.2-5.242,18.727,18.727,0,0,0-.081-3.061c-.06-.7-.18-1.2-.239-1.56a1,1,0,0,1,.8-1.34,1.932,1.932,0,0,1,1.94.84,1.292,1.292,0,0,1,.18.32c.44,0,1.82,0,3.241-.04-.1-1.08-.22-1.56-.3-2.1a.961.961,0,0,1,1-1.16,1.93,1.93,0,0,1,1.88,1.2,2.654,2.654,0,0,1,.04,1.379c-.04.2-.08.442-.1.621.46,0,.841-.02,1.12-.041a2.439,2.439,0,0,0,1.221-.479,1.687,1.687,0,0,1,1.4-.6,1.607,1.607,0,0,1,1.12,1.16c.12.621-.4,1.081-1.32.981-.42-.06-1.38-.14-1.72-.14a4.543,4.543,0,0,0-.58-.02C661.171,3648.287,657.17,3648.348,655.53,3648.407Zm2.581,6.1a3.842,3.842,0,0,1,.1,2.2,1.263,1.263,0,0,1-1.681.96,1.117,1.117,0,0,1-.34-1.64,8.176,8.176,0,0,0,.6-1.621c.08-.3.2-.5.48-.56C657.71,3653.769,657.971,3654.209,658.111,3654.508Zm8.641,3.441c0,1.1-2.12,1.76-3.92,1.74-1.921-.04-3.521-.6-3.421-3.14a11.08,11.08,0,0,0-.26-2.361.817.817,0,0,1,.84-.98,1.56,1.56,0,0,1,1.62,2.021l-.08.32c-.2,1.36-.02,1.78.6,2.1a3.46,3.46,0,0,0,2.541-.259c-.22-.459-.16-.96.32-1.04a.918.918,0,0,1,.861.48C666.112,3657.189,666.732,3657.309,666.752,3657.949Zm-4.3-7.481a1.336,1.336,0,0,1,.42,1.479,1.253,1.253,0,0,1-2.081.041,6.764,6.764,0,0,0-1.3-1.24c-.6-.42-.3-1.08.42-1.1A3.9,3.9,0,0,1,662.452,3650.468Zm4.581,4.841a1.247,1.247,0,0,1-2.041-.321,8.169,8.169,0,0,0-1.04-1.439c-.56-.481-.16-1.121.58-1.022a4.018,4.018,0,0,1,2.361,1.242A1.347,1.347,0,0,1,667.033,3655.309Z" fill="#fff"/>
          <path id="パス_1810" data-name="パス 1810" d="M675.67,3652.469a3.328,3.328,0,0,1-1.56,1.379c.04,1.2.12,2.161.14,2.422a5.78,5.78,0,0,1,.02,1.66c-.12.8-.52,1.42-1.42,1.4a1.693,1.693,0,0,1-1.52-1.2c-.181-.3-.681-.8-.421-1.2.381-.541.921-.16,1.32.138.041-.6.061-1.5.061-2.5a1.619,1.619,0,0,1-1.02.061,1.488,1.488,0,0,1-1.281-1.421.716.716,0,0,1,.781-.681,8.074,8.074,0,0,0,1.52-.119c-.02-.92-.04-1.82-.081-2.52a2.982,2.982,0,0,0-.419.04,4.994,4.994,0,0,1-1.04.179.846.846,0,0,1-.841-.64.555.555,0,0,1,.66-.68,7.966,7.966,0,0,0,1.421.24h.179a1.139,1.139,0,0,1-.02-.24c-.079-.66-.259-1.62-.339-2.18-.2-1.06.3-1.361,1-1.34a1.358,1.358,0,0,1,1.46,1.219,6.813,6.813,0,0,1-.08,1.681,1.232,1.232,0,0,1,1.081-.34,1.572,1.572,0,0,1,1.12,1.16c.12.62-.381,1.06-1.3.96-.22-.019-.64-.059-1.04-.1-.02.66-.02,1.42,0,2.16a5.382,5.382,0,0,0,.76-.279C675.35,3651.488,675.931,3651.848,675.67,3652.469Zm9.582.4c.121.6-.379,1.06-1.3.96-.42-.04-1.38-.119-1.72-.14-.2-.02-.461-.02-.76-.02h-1.221a9.389,9.389,0,0,1-.64,1.381,15.159,15.159,0,0,0,1.64-.1,2.211,2.211,0,0,0,.961-.5,1.675,1.675,0,0,1,1.38-.6,1.547,1.547,0,0,1,1.1,1.161c.1.5-.22.9-.84.979-.3.42-.68.9-1.1,1.381a11.359,11.359,0,0,0,1.44.26.707.707,0,0,1,.641.78,1.481,1.481,0,0,1-1.481,1.16,1.558,1.558,0,0,1-1.18-.38,4.591,4.591,0,0,0-.7-.419.744.744,0,0,0-.14-.1,4.751,4.751,0,0,1-2.341.9c-.7.04-.84-.679-.26-1a7.269,7.269,0,0,0,1.26-.84,2.738,2.738,0,0,1-.46-.581c-.28-.6.2-.979.74-.7.2.1.44.2.681.321a6.884,6.884,0,0,0,.66-.942c-.5,0-2.1.061-2.621.121a4.985,4.985,0,0,1-1.68,1.38c-.76.36-1.181-.24-.8-.82a17.256,17.256,0,0,0,1.38-2.7c-.52.08-.46.179-.92.16a.827.827,0,0,1-.841-.641c-.1-.4.221-.721.681-.66a11.524,11.524,0,0,0,1.4.24q.24-.75.42-1.5c-.12.02-.22.02-.28.039-.62.08-.54.181-1,.16a.825.825,0,0,1-.84-.639.562.562,0,0,1,.66-.681,9.848,9.848,0,0,0,1.58.281c.24,0,1.48-.041,2.96-.16a1.9,1.9,0,0,0,1.021-.461c-.52.02-.82-.38-.48-.9a8.5,8.5,0,0,0,.92-1.859.919.919,0,0,1,1.4-.521,1.292,1.292,0,0,1,.06,2.04c-.18.16-.36.4-.6.6a.23.23,0,0,0,.1.019,1.54,1.54,0,0,1,1.12,1.161c.121.619-.379,1.08-1.3.98-.42-.04-1.38-.12-1.72-.14-.2-.02-.461-.02-.76-.02h-.9a1.745,1.745,0,0,1,.1,1.52l1.04-.06a2.019,2.019,0,0,0,1.041-.459,1.616,1.616,0,0,1,1.38-.621A1.536,1.536,0,0,1,685.252,3652.868Zm-8.562-4.9c-.179-.6.361-1.04,1.081-.561a4.527,4.527,0,0,1,1.32,1.362,1.057,1.057,0,0,1-.12,1.279,1.16,1.16,0,0,1-1.721-.159,3.051,3.051,0,0,1-.279-.941A6.792,6.792,0,0,0,676.69,3647.967Zm1.461-2.381a12.459,12.459,0,0,0,4.341-1.16,1.054,1.054,0,0,1,1.66.5,1.473,1.473,0,0,1-1.36,1.921c-.3.04-.66.139-1.061.18a10.467,10.467,0,0,1-1.339.08.394.394,0,0,1,.119.081,3.826,3.826,0,0,1,1.281,1.32,1.033,1.033,0,0,1-.12,1.26,1.094,1.094,0,0,1-1.661-.161,2.481,2.481,0,0,1-.28-.919,7.81,7.81,0,0,0-.26-.961.626.626,0,0,1,.16-.661,5.059,5.059,0,0,1-1.72-.339C677.271,3646.406,677.371,3645.646,678.151,3645.586Z" fill="#fff"/>
          <path id="パス_1811" data-name="パス 1811" d="M702.084,3651.708c-.64.06-1.2.021-1.94.08-.08.62-.18,1.6-.34,2.38a11.218,11.218,0,0,1-1.2,3.48,5.155,5.155,0,0,1-1.641,2,.721.721,0,0,1-.8-.02c-.22-.159-.28-.459-.04-.9a17.214,17.214,0,0,0,1.64-6.8c-.84.06-2.06.2-2.84.34a9.021,9.021,0,0,0,.18,1.18,1.721,1.721,0,0,1-.2,1.481c-.5.46-1.421.179-1.941-.38a1.634,1.634,0,0,1-.3-1.281,2.628,2.628,0,0,0-.02-.539,5.81,5.81,0,0,0-.68.119,3.036,3.036,0,0,1-1.34.32,1.825,1.825,0,0,1-1.821-1.62c-.06-.6.261-.841.961-.9.38-.02.98.121,1.42.1a10.054,10.054,0,0,0,1.16-.041,26.27,26.27,0,0,0-.52-2.66c-.08-.481.24-.981,1-.981a1.976,1.976,0,0,1,1.841,1.282,2.628,2.628,0,0,1,.08,1.5,4.473,4.473,0,0,0-.04.72c1-.06,1.94-.2,3.12-.38a3.8,3.8,0,0,0-.02-.68,16.355,16.355,0,0,0-.38-2.141c-.14-.541.22-1,.96-1a2,2,0,0,1,1.861,1.2,2.165,2.165,0,0,1,.1,1.561,2.156,2.156,0,0,0-.08.48,4.481,4.481,0,0,1,1.42-.3,1.746,1.746,0,0,1,1.66,1.2C703.444,3651.027,703.084,3651.607,702.084,3651.708Z" fill="#fff"/>
          <path id="パス_1812" data-name="パス 1812" d="M716.088,3649.008a2.866,2.866,0,0,1-1.2,1.139,16.118,16.118,0,0,0-2.021,1.861,1.3,1.3,0,0,1,.52,1.26,22.114,22.114,0,0,0-.06,5.121c.06,1.081-.08,1.921-.9,1.921a2.081,2.081,0,0,1-1.54-.861,2.043,2.043,0,0,1-.14-1.6,28.934,28.934,0,0,0,.12-4.022c-.48.381-1.14.92-1.661,1.32a10.991,10.991,0,0,1-2.34,1.34.787.787,0,0,1-.921-.139.659.659,0,0,1,.12-.84c.081-.08,3.622-3.721,4.182-4.3.74-.8,2.08-2.381,2.26-2.6.48-.6.92-1.18,1.54-2.06.44-.6,1.381-.52,1.9.359A2.221,2.221,0,0,1,716.088,3649.008Z" fill="#fff"/>
          <path id="パス_1813" data-name="パス 1813" d="M731.748,3654.408c-.28.4-.881.461-1.621.1a28.151,28.151,0,0,0-2.981-1.02c-.54-.14-1.04-.28-1.459-.359,0,.819.019,1.92.019,2.46,0,.26.12,1.54.141,2.12.059,1.16-.16,1.92-1.021,1.92a2.086,2.086,0,0,1-1.56-.84c-.44-.6.06-2.2.1-3.221a54.65,54.65,0,0,0-.1-5.8c-.08-1.141-.4-3.221-.44-3.5-.06-.54.36-.92,1.04-.92a2.161,2.161,0,0,1,2.04,1.38,5.943,5.943,0,0,1-.24,2.5c-.04.479-.02.9-.04,1.74a35.171,35.171,0,0,0,3.541.86,14.968,14.968,0,0,1,1.54.32,1.5,1.5,0,0,1,1.1,1.1A1.41,1.41,0,0,1,731.748,3654.408Z" fill="#fff"/>
          <path id="パス_1814" data-name="パス 1814" d="M739.2,3648.607c-.12-1.72-.66-3.98,1.08-4,1.721-.02,1.7,1.441,1.7,2.96,0,1.181-.259,4.2-.339,5-.14,1.3-.121,2.441-1.241,2.441-.98,0-.88-1.7-.92-2.1C739.4,3652.027,739.284,3649.588,739.2,3648.607Zm2.24,11.042a1.889,1.889,0,0,1-.559.08,1.389,1.389,0,0,1-1.4-.959,2.011,2.011,0,0,1,.54-2.381,2.044,2.044,0,0,1,1.02-.26,1.648,1.648,0,0,1,1.721,1.519A1.846,1.846,0,0,1,741.444,3659.649Z" fill="#fff"/>
          <path id="パス_1815" data-name="パス 1815" d="M819.611,3648.934c-.566,0-3.022,0-4.534.162a13.825,13.825,0,0,1,.4,2.968c1.053,1.512.837,4.967-.512,7.423a9.935,9.935,0,0,1-3.455,3.861.94.94,0,0,1-1.242-.055c-.243-.27-.3-.756.243-1.457a12.84,12.84,0,0,0,2.241-4.319c-2.187,1.08-5.264.594-5.939-2.16a3.63,3.63,0,0,1,.567-2.942,4.59,4.59,0,0,1,3.59-1.511,3.54,3.54,0,0,1,1.836.432,8.823,8.823,0,0,0-.487-2.079c-.512,0-1.943.188-3.536.324-.782.081-2.1.3-2.834.3a2.626,2.626,0,0,1-2.321-2.483c0-1.081.675-1.269,2.214-.946a30.863,30.863,0,0,0,3.131.487c1.025.107,2.861.162,2.887.162-.08-.432-.269-1.053-.4-1.619-.216-.756-.378-1.135-.567-1.917-.162-.594.189-1.242,1.349-1.242a2.59,2.59,0,0,1,2.511,1.592,2.909,2.909,0,0,1,.027,1.593,4.876,4.876,0,0,0-.054,1.349,15.267,15.267,0,0,0,3.374-.836c1.323-.3,2.025-.325,2.754.189a2.056,2.056,0,0,1,.89,1.322C821.8,3648.069,821.528,3648.934,819.611,3648.934Zm-6.639,5.533c0-.783-.891-1.322-1.7-1.322-1.053,0-1.835.62-1.835,1.457,0,.809.674,1.349,1.619,1.349C812.054,3655.951,812.972,3655.385,812.972,3654.467Z" fill="#fff"/>
          <path id="パス_1816" data-name="パス 1816" d="M837.582,3661.943c-2.457.865-5.885.3-6.991-1.4a3.14,3.14,0,0,1-.081-3.509,3.994,3.994,0,0,1,3.995-1.808,10.078,10.078,0,0,1,4.1,1.349c.27-2.051-2.024-3.265-4.021-3.32a6.96,6.96,0,0,0-3.564,1.322c-.621.459-1.025.973-1.673,1-.81.054-1.538-.917-1.35-2.186.162-1.215,1.106-1.215,2.159-1.971.136-.08.487-.351.783-.566.918-.649,3.806-2.7,4.832-3.59.432-.378.918-.864.918-.864a2.938,2.938,0,0,0-1.269-.027,16.5,16.5,0,0,0-2.618.648c-.864.188-1.134.647-2.429.647a2.11,2.11,0,0,1-1.782-.836c-1.134-1.161-1.215-3.293.3-3.051a22.107,22.107,0,0,0,5.156.19c1.431-.082,2.7-.594,3.833-.568,1,.054,2.644,1.458,2.267,2.539-.324.944-1.295,1.375-2.348,2.185a27.976,27.976,0,0,0-3.536,2.727,6.3,6.3,0,0,1,6.046,1.7A6,6,0,0,1,837.582,3661.943Zm.378-3.238a7.47,7.47,0,0,0-4.508-1.026c-.54.135-.81.459-.837.809-.027.432.3,1.026,1.241,1.161C835.261,3659.838,837.123,3659.676,837.96,3658.705Z" fill="#fff"/>
          <path id="パス_1817" data-name="パス 1817" d="M867.239,3646.314a7.444,7.444,0,0,1-.783,1.864,3.744,3.744,0,0,1-1.484,1.484c-.864.432-1.647.027-1.35-1.053a8.313,8.313,0,0,0,.351-2.457h-.945c-1.539-.026-9.177.055-12.632.109a7.5,7.5,0,0,1,.35,1.862,1.966,1.966,0,0,1-1.754,2.187c-2.052.162-2.133-1.728-1.727-3.428a21.519,21.519,0,0,0,.3-2.538c.134-1.053,1.133-1.16,1.727-.405a10,10,0,0,1,.648,1.188c1.161,0,3.644,0,6.154-.027a27.631,27.631,0,0,0-.378-2.807,1.134,1.134,0,0,1,1.188-1.377,2.293,2.293,0,0,1,2.241,1.431,3.394,3.394,0,0,1,.053,1.647c-.053.242-.081.674-.134,1.052,1.862-.026,3.427-.081,4.048-.108a3.213,3.213,0,0,0,1.647-.647,2.268,2.268,0,0,1,1.89-.811,2.123,2.123,0,0,1,1.511,1.566A1.055,1.055,0,0,1,867.239,3646.314Zm-17.329,10.825a.66.66,0,0,1-.081-1.295,17.033,17.033,0,0,0,4.562-2.511,1.029,1.029,0,0,1,1.646.729,1.651,1.651,0,0,1-1.4,1.889c-.324.081-.837.459-1.7.783A5.93,5.93,0,0,1,849.91,3657.139Zm9.258-.189a8.7,8.7,0,0,1-.756,4.292c-.891,1.619-1.97,1.538-2.563,1.377-.865-.27-.946-1.215-1.134-1.62-.271-.567-.405-1.026,0-1.323a.682.682,0,0,1,.89.054c.3.243.513.432.622.513a8.543,8.543,0,0,0,.215-1.835,2.065,2.065,0,0,1-1.188.7c-.323.055-.972.459-1.862.756a5.268,5.268,0,0,1-2.915.242.677.677,0,0,1-.081-1.322,13.747,13.747,0,0,0,4.723-2.294.959.959,0,0,1,1.377.216c0-.378,0-.756-.027-1.08a19.8,19.8,0,0,0-.648-3.482,19.969,19.969,0,0,1-2.618,1.08,6.5,6.5,0,0,1-2.97.3c-1.025-.214-.917-1.187-.162-1.429a15.356,15.356,0,0,0,4.535-2.322,4.92,4.92,0,0,1-1.106.189,1.172,1.172,0,0,1-1.134-.863.742.742,0,0,1,.891-.918,11.115,11.115,0,0,0,1.917.3,18.061,18.061,0,0,0,2.591-.135,3.547,3.547,0,0,0,1.322-.649,1.851,1.851,0,0,1,3.4.756c.135.81-.54,1.431-1.781,1.295-.567-.053-1.62-.215-2.456-.215a6.871,6.871,0,0,0-.7.027v.053a1.664,1.664,0,0,1-.028,1.027A16.718,16.718,0,0,1,859.168,3656.95Zm4.13-1.836a3.072,3.072,0,0,1-.539.189,16.709,16.709,0,0,0,2.24,2.484,1.109,1.109,0,0,1,.188,1.566,2.346,2.346,0,0,1-2.942.243,2.541,2.541,0,0,1-1.214-1.512,4.674,4.674,0,0,0-.513-1.161,9.325,9.325,0,0,1-.945-4.372c.135-1.027,1.188-1.08,1.593-.19.162.378.351.784.54,1.188a9.85,9.85,0,0,0,1.431-1.647,1.3,1.3,0,0,1,2.1-.162,1.8,1.8,0,0,1-.728,2.754A11.943,11.943,0,0,1,863.3,3655.114Z" fill="#fff"/>
          <path id="パス_1818" data-name="パス 1818" d="M876.089,3652.2c-.324,2.862-1.7,6.1-3.267,7.126a.817.817,0,0,1-1.241-1.025,24.285,24.285,0,0,0,1.484-6.479,31.211,31.211,0,0,0,.028-4.589,18.774,18.774,0,0,0-.3-1.916,1.218,1.218,0,0,1,1-1.646,2.36,2.36,0,0,1,2.4,1.025,1.489,1.489,0,0,1,.19.351c.323,0,2.483-.026,4.777-.054-.135-1.053-.269-1.43-.351-2.024a1.157,1.157,0,0,1,1.188-1.377,2.29,2.29,0,0,1,2.24,1.43,2.841,2.841,0,0,1,.054,1.647c0,.081-.026.189-.026.27,1-.027,1.835-.081,2.321-.108a3.415,3.415,0,0,0,1.646-.621,2.207,2.207,0,0,1,1.89-.836,2.158,2.158,0,0,1,1.512,1.592c.162.81-.54,1.431-1.783,1.3-.566-.054-1.862-.162-2.321-.189a6.1,6.1,0,0,0-.782-.027c-1.7-.027-7.937.054-10.177.135-.026.459-.107.89-.162,1.349C876.358,3647.907,876.277,3650.715,876.089,3652.2Zm4.1,7.423c-.3.54-.918.864-2.024,1.512a1.681,1.681,0,0,1-2.537-.648c-.405-.972.324-1.62,1.7-1.539a5.687,5.687,0,0,0,1.836-.35C879.9,3658.381,880.678,3658.731,880.191,3659.622Zm-3.346-2.672a.676.676,0,0,1,.216-1.3,5.02,5.02,0,0,1,2.564.216c.944.459.917.944.891,1.241a1.25,1.25,0,0,1-2.052.811A14.954,14.954,0,0,0,876.845,3656.95Zm14.252-4.994c-.3-.026-.729-.081-1.188-.108a.2.2,0,0,1,.027.135,3.239,3.239,0,0,1-.351,2.646c-.027.027-.027.054-.054.08a.979.979,0,0,1,.3.352,1.581,1.581,0,0,1-1.08,2.267c-.3.08-.566.216-.972.324a3.029,3.029,0,0,1-1.7.027.682.682,0,0,1-.135-1.324,9.108,9.108,0,0,0,1.647-1.16,1.218,1.218,0,0,1-.459-.242,1.06,1.06,0,0,1-.324-.648c-.7.027-1.485.027-2.294.054.053,1.862.135,3.644.188,4.1a7.444,7.444,0,0,1,.028,2.187c-.163,1.053-.675,1.862-1.863,1.862-1.377-.027-1.593-1.052-1.889-1.538-.216-.378-.811-1.188-.459-1.647.431-.594,1.079-.188,1.538.189.027-.135.027-2.7,0-5.128-.972.026-1.728.053-1.89.081a9.365,9.365,0,0,1-1.431.242,1.167,1.167,0,0,1-1.132-.863.751.751,0,0,1,.917-.918,10.632,10.632,0,0,0,1.917.3c.081.027.728,0,1.619,0-.027-.513-.027-1-.054-1.43-1.539.053-2.808.08-3.05.135-.837.107-.729.242-1.349.215a1.141,1.141,0,0,1-1.134-.864.75.75,0,0,1,.89-.918,10.9,10.9,0,0,0,2.132.352c.136,0,1.134,0,2.43-.027-.027-.378-.107-.864-.189-1.323-.864.028-1.592.054-1.808.08a9.5,9.5,0,0,1-1.4.244,1.121,1.121,0,0,1-1.134-.864.742.742,0,0,1,.891-.918,10.719,10.719,0,0,0,1.916.324c.109,0,.648,0,1.35-.027a1.355,1.355,0,0,1-.054-.323c-.243-1.377.405-1.782,1.3-1.755a1.808,1.808,0,0,1,1.944,1.62,2.115,2.115,0,0,1,.026.4c.378-.027.675-.054.81-.054a3.177,3.177,0,0,0,1.431-.674,1.865,1.865,0,0,1,3.4.756,1.012,1.012,0,0,1-.648,1.16c0,.107-.027.216-.027.324a1.877,1.877,0,0,1,1.62-.594,2.153,2.153,0,0,1,1.538,1.566C893.013,3651.471,892.338,3652.092,891.1,3651.956Zm-6.586,1.241c.809,0,1.619,0,2.294-.026a10.854,10.854,0,0,0,.108-1.431c-.675,0-1.512,0-2.4.028Zm.026-2.537c.864-.026,1.674-.054,2.349-.08a10.9,10.9,0,0,0-.081-1.269,3.912,3.912,0,0,0-.756-.027H884.7a5.882,5.882,0,0,1-.107.7C884.564,3650.175,884.564,3650.391,884.537,3650.66Zm6.775,9.233a1.933,1.933,0,0,1-1.781,1.591,2.044,2.044,0,0,1-1.565-.377,5.348,5.348,0,0,0-.918-.513,3.3,3.3,0,0,1-1.3-1.35c-.351-.783.135-1.295.837-1a7.811,7.811,0,0,0,1.7.485c.621.109,1.161.135,2.133.216A.917.917,0,0,1,891.312,3659.893Z" fill="#fff"/>
        </g>
        <g id="グループ_9505" data-name="グループ 9505">
          <path id="パス_1819" data-name="パス 1819" d="M764.757,3663.3c.05-.2.034-.281-.147-.344.014-.133.207-.088.246-.2.193.062.146-.116.147-.246.046-.011.1.014.148,0s.082-.033.147-.049c.044-.011.032-.043.049-.049.309-.107.668-.217.984-.345.049-.019.129-.019.2-.049.03-.013.074-.088.1-.1.073-.032.118-.022.2-.05.011,0,.012-.04.049-.049a.762.762,0,0,0,.246-.1c.036-.024.07-.082.1-.1.065-.037.128-.014.2-.049.035-.017.069-.079.1-.1a1.424,1.424,0,0,0,.148-.1c.032-.025.07-.079.1-.1s.086.016.1,0,.034-.089.049-.1c.052-.032.1-.015.148-.05s.057-.119.1-.147.105-.016.148-.049.057-.119.1-.148.1-.016.148-.049.057-.116.1-.148.1-.017.148-.049c.016-.012.034-.092.049-.1a.65.65,0,0,0,.2-.1c.041-.034.056-.115.1-.147.071-.056.3-.116.3-.3a2.649,2.649,0,0,0,.689-.639c.037-.039.115-.057.148-.1s.018-.111.049-.147.115-.057.147-.1.018-.11.05-.148.115-.057.147-.1.018-.11.049-.148c.07-.085.177-.112.246-.2.014-.017-.016-.085,0-.1s.087-.033.1-.05c.026-.037.018-.1.049-.147.012-.017.092-.034.1-.049a1.134,1.134,0,0,1,.1-.2c.035-.055.066-.089.1-.148.02-.037.022-.1.049-.147.012-.02.091-.033.1-.05s-.015-.074,0-.1.079-.069.1-.1.027-.064.049-.1.042-.036.05-.049a.527.527,0,0,0,.1-.2,2.421,2.421,0,0,1,.246-.541c.046-.095.1-.2.148-.295.02-.041.022-.1.049-.148.014-.026.09-.077.1-.1.039-.1.01-.226.049-.345.009-.025.093-.079.1-.1.013-.045-.011-.1,0-.148a5.7,5.7,0,0,0,.1-.639,5.257,5.257,0,0,0-.049-2.067,1.155,1.155,0,0,1-.1-.295.756.756,0,0,0-.1-.246,4.1,4.1,0,0,1-.147-.443,1.434,1.434,0,0,0-.1-.246c-.045-.106-.1-.23-.147-.344-.024-.05-.095-.12-.1-.2s-.095-.077-.1-.147-.026-.054-.049-.1c-.034-.063-.011-.135-.05-.2-.022-.035-.07-.053-.1-.1s-.1-.093-.1-.148-.092-.077-.148-.147c-.014-.017.016-.085,0-.1a1.491,1.491,0,0,1-.246-.2c-.047-.055-.052-.143-.1-.2a3.4,3.4,0,0,1-.246-.246,1.162,1.162,0,0,0-.2-.246c-.036-.027-.11-.018-.148-.049-.068-.056-.125-.14-.2-.2-.145-.116-.293-.236-.442-.345-.031-.022-.07-.08-.1-.1a1.764,1.764,0,0,1-.246-.148,2,2,0,0,0-.246-.147c-.09-.053-.194-.116-.344-.2-.032-.017-.071-.084-.1-.1-.113-.062-.273-.077-.442-.148-.03-.013-.075-.088-.1-.1s-.069.007-.1,0c-.044-.011-.085-.034-.148-.05,0,0-.144-.045-.147-.049a1.978,1.978,0,0,0-.64-.2,3.1,3.1,0,0,0-1.624.05c-.136.038-.306.1-.442.147-.019.007,0,.047-.05.049a.656.656,0,0,0-.147,0c0,.005,0,.048,0,.05a1.116,1.116,0,0,0-.3.1c-.158.1-.428.207-.64.344-.027.018.008.047-.049.05a.807.807,0,0,0-.246.1c-.062.039-.09.111-.148.148-.1.062-.186.077-.295.147-.027.018.008.046-.049.049-.089,0-.414.388-.492.492a9.278,9.278,0,0,0-.541.837c-.016.026-.047-.007-.05.049,0,.083-.026.054-.049.1s-.022.1-.049.148c-.017.032-.084.071-.1.1a2.888,2.888,0,0,0-.1.3c-.006.014-.039.009-.049.049s.012.071,0,.1-.084.071-.1.1a3.354,3.354,0,0,0-.147.492c-.026.084-.075.2-.1.295-.048.193-.04.358-.1.59a4.415,4.415,0,0,0,0,1.87c.007.017-.013.087,0,.1s.047-.006.049,0-.014.087,0,.1.047-.007.049,0-.014.086,0,.1.046-.006.05,0-.015.086,0,.1c.048.04.065.041.1.1s.062.139.1.2.112.095.148.147c.012.018-.016.085,0,.1a.419.419,0,0,1,.1.1c.041.058.108.093.147.148.054.074.052.146.1.2a3.537,3.537,0,0,0,.393.3c.066.05.151.119.246.2.028.023.075.085.1.1.094.057.2.049.295.1.025.014-.006.046.049.049a.505.505,0,0,1,.1.05c.051.023.121.094.2.1a1.776,1.776,0,0,1,.246.1c.085.032.133.024.2.049.094.038.305.083.443.148.023.011-.005.047.049.049.092,0,.122.092.2.148.017.013.085-.016.1,0s-.007.045,0,.049.086-.015.1,0-.007.047,0,.05.086-.015.1,0a.333.333,0,0,0,.2.147c.014.1.1.131.147.2.113.117.312-.019.425.1.033.247.034.295-.08.394.019.091-.056.118-.1.2-.009.018.015.086,0,.1-.1.083-.087.112-.1.344,0,.032.02.177,0,.2a.358.358,0,0,0-.1.2c-.023.1.005.094-.049.148-.072.072.047.447.049.59-.135-.051-.038.148-.1.2-.005,0-.047-.006-.049,0-.037.089-.02.194-.049.246s-.192.092-.2.2c0,0-.041.137-.049.147-.034.042-.111.013-.148.049-.015.016.017.085,0,.1s-.04-.008-.049,0c-.064.062-.086.083-.148.147-.079-.013-.084.047-.147.05-.114.017-.1.177-.148.246-.011.016-.084-.014-.1,0s.034.212-.1.2a2.3,2.3,0,0,1-.639.1c-.109-.027-.07.094-.148.1-.063,0-.062.082-.1.1s-.073-.015-.1,0c-.12.067-.253.088-.344.2a.778.778,0,0,1-.443-.147c-.063.032-.137.009-.2.049-.038.025-.06.128-.1.148a1.016,1.016,0,0,1-.2.049.644.644,0,0,1-.148.049c-.223,0-.342-.2-.541-.295-.148.112-.422.021-.59,0-.144.012-.17-.093-.246-.148-.1-.029-.323.061-.344-.049-.1.04-.111-.086-.148-.1-.057-.019-.143.025-.2,0-.023-.011.005-.047-.049-.049-.085,0-.12-.091-.2-.148-.093-.069-.2-.093-.246-.2-.092-.072-.326,0-.394-.1-.1.023-.093-.071-.1-.148a.135.135,0,0,1-.148-.1c-.391-.1-.634-.465-.885-.788-.045-.057-.111-.093-.148-.147s-.055-.131-.1-.2c-.018-.027-.046.008-.049-.049s-.076-.062-.1-.1c-.011-.019.016-.086,0-.1s-.046.006-.049,0-.243-.486-.246-.492.015-.087,0-.1-.046.006-.049,0l-.1-.2c-.008-.018-.045-.092-.049-.1-.114-.214-.2-.456-.344-.688a2.465,2.465,0,0,1-.148-.394c-.045-.182-.138-.464-.2-.689a8.212,8.212,0,0,1-.247-1.673c-.006-.115.011-.239,0-.344a11.115,11.115,0,0,1-.049-1.525,6.9,6.9,0,0,1,.148-.837c.007-.036-.024-.172,0-.2,0,0,.048,0,.049,0,.008-.037-.025-.172,0-.2,0,0,.048,0,.049,0,.01-.038-.026-.171,0-.2s.034-.036.05-.1.095-.282.147-.443c.023-.072.076-.157.1-.246a1.587,1.587,0,0,1,.1-.246c.028-.073.016-.124.049-.2.011-.023.046,0,.049-.049a.505.505,0,0,1,.049-.1c.024-.05.095-.12.1-.2a.613.613,0,0,1,.1-.2.533.533,0,0,1,.049-.049c.035-.068.014-.128.05-.2.016-.033.083-.071.1-.1s-.015-.086,0-.1.092-.037.1-.049c.035-.065.011-.132.049-.2.015-.026.046.007.049-.049a.535.535,0,0,1,.049-.1c.02-.03.082-.07.1-.1.036-.064.012-.13.049-.2.011-.021.09-.032.1-.049a1.251,1.251,0,0,1,.1-.246c.021-.032.079-.069.1-.1s.027-.064.049-.1c.034-.054.063-.092.1-.147s.064-.093.1-.148c.015-.023.042-.037.049-.049.018-.031.023-.114.049-.148.074-.093.237-.226.345-.344.121-.134.227-.227.344-.345s.23-.243.345-.344c.041-.037.045-.066.1-.1.031-.02.066-.027.1-.05s.067-.075.1-.1.166-.193.246-.2c.042,0,.109-.074.147-.1s.161-.193.246-.2.119-.138.2-.2c.04-.031.107-.026.148-.049.026-.014-.007-.046.049-.049.083,0,.1-.143.2-.148.042,0,.109-.074.147-.1s.066-.027.1-.049c.079-.055.126-.1.2-.148s.174-.058.246-.1c.036-.021.067-.076.1-.1a.789.789,0,0,1,.1-.049c.079-.043.163-.056.246-.1.033-.017.071-.083.1-.1s.086.015.1,0-.006-.046,0-.049a7.685,7.685,0,0,1,2.067-.689c.089-.017.183-.025.295-.049.237-.05.564-.044.885-.1a7.515,7.515,0,0,1,1.87.049c.156.019.3.023.443.049a9.192,9.192,0,0,1,1.033.3c.124.04.275.054.394.1.019.007,0,.046.049.049.107,0,.132.057.246.1s.2.039.344.1c.1.04.2.106.295.147.22.1.43.184.64.295.057.031.088.067.148.1s.123.094.2.1a.507.507,0,0,1,.1.049,1.125,1.125,0,0,1,.147.05c.02.011.033.09.05.1s.079-.016.1,0c.041.033.057.118.1.148.018.012.086-.017.1,0s.033.087.049.1.085-.016.1,0a4.273,4.273,0,0,0,.64.492c.084.063.162.18.246.246.017.014.085-.016.1,0a1.666,1.666,0,0,0,.2.2c.091.078.168.177.246.246a1.942,1.942,0,0,1,.345.344,1.346,1.346,0,0,0,.1.1c.056.063.151.137.2.2.013.018-.017.085,0,.1s.087.033.1.049-.016.085,0,.1.088.034.1.05-.016.085,0,.1a.619.619,0,0,1,.147.2c.017.027.046-.008.049.049a.657.657,0,0,0,.1.2c.034.054.063.092.1.147.015.024.042.037.049.05a.516.516,0,0,1,.1.2c0,.073.1.155.147.246s.1.2.148.3c.013.025.046-.006.049.049a1.592,1.592,0,0,0,.1.3c.01.023.046,0,.049.049a.5.5,0,0,0,.049.1c.035.076.057.142.1.246a1.139,1.139,0,0,1,.148.3,1.309,1.309,0,0,0,.1.246c.011.023.047,0,.05.049a1.889,1.889,0,0,0,.1.295c.008.02.047,0,.049.049a.208.208,0,0,0,0,.05.832.832,0,0,1,.049.147c.015.059.066.3.1.492,0,.005.047.01.049.049a1.447,1.447,0,0,0,0,.246,1.712,1.712,0,0,1,.049.3c.014.156.084.4.1.59.031.4,0,.824,0,1.23a9.207,9.207,0,0,1-.1,1.82c-.017.083-.027.211-.049.3,0,.012-.047,0-.049.049a.653.653,0,0,1,0,.147c-.04.033-.034.038-.049.1,0,0-.045.144-.05.147a1.057,1.057,0,0,0-.147.3,1.526,1.526,0,0,1-.1.295c-.011.024-.046,0-.049.049a.16.16,0,0,1,0,.049c-.011.024-.093.081-.1.1-.013.043.017.1,0,.147-.009.022-.047,0-.049.049a1.045,1.045,0,0,1-.05.148c-.015.033-.082.07-.1.1s.015.087,0,.1-.046-.007-.049,0,.015.086,0,.1-.046-.006-.049,0,.014.087,0,.1a1.342,1.342,0,0,0-.148.246c-.014.026-.046-.007-.049.049a1.255,1.255,0,0,1-.049.147c-.021.036-.076.068-.1.1-.037.05-.046.116-.1.2-.018.027-.046-.008-.049.049-.005.083-.143.1-.148.2,0,.068-.129.124-.2.2-.2.215-.4.406-.639.639-.1.1-.174.283-.345.3.028.109-.094.07-.1.148,0,.014-.085.085-.1.1-.041.04-.106.059-.147.1-.1.091-.3.268-.443.393-.043.039-.1.059-.148.1s-.057.117-.1.147c-.018.013-.085-.016-.1,0s-.033.088-.05.1-.085-.016-.1,0-.034.088-.049.1c-.061.038-.136.01-.2.049-.037.024-.051.071-.1.1-.08.047-.144.082-.246.147-.02.013-.041.045-.05.049-.066.036-.127.014-.2.05-.027.013-.077.089-.1.1a1.884,1.884,0,0,1-.2.049c-.111.035-.238.05-.393.1-.093.028-.245.108-.345.147-.074.03-.118.02-.2.049-.115.043-.237.109-.345.148a1.287,1.287,0,0,0-.295.1c-.054.035-.236.079-.344.148-.046.029-.145.045-.246.1-.026.014.006.047-.05.05-.076,0-.151.1-.246.147a3.54,3.54,0,0,0-.344.148c-.027.017.008.046-.049.049s-.258.143-.345.148c-.025,0-.068.036-.1.049a11.105,11.105,0,0,1-1.328.393c-.1.026-.093,0-.148.05-.005,0-.042,0-.049,0A1.6,1.6,0,0,1,764.757,3663.3Z" fill="#fff" fill-rule="evenodd"/>
        </g>
        <g id="グループ_9506" data-name="グループ 9506">
          <path id="パス_1820" data-name="パス 1820" d="M789.757,3663.3c.05-.2.034-.281-.147-.344.014-.133.207-.088.246-.2.193.062.146-.116.147-.246.046-.011.1.014.148,0s.082-.033.147-.049c.044-.011.032-.043.049-.049.309-.107.668-.217.984-.345.049-.019.129-.019.2-.049.03-.013.074-.088.1-.1.073-.032.118-.022.2-.05.011,0,.012-.04.049-.049a.762.762,0,0,0,.246-.1c.036-.024.07-.082.1-.1.065-.037.128-.014.2-.049.035-.017.069-.079.1-.1a1.424,1.424,0,0,0,.148-.1c.032-.025.07-.079.1-.1s.086.016.1,0,.034-.089.049-.1c.052-.032.1-.015.148-.05s.057-.119.1-.147.105-.016.148-.049.057-.119.1-.148.1-.016.148-.049.057-.116.1-.148.1-.017.148-.049c.016-.012.034-.092.049-.1a.65.65,0,0,0,.2-.1c.041-.034.056-.115.1-.147.071-.056.3-.116.3-.3a2.649,2.649,0,0,0,.689-.639c.037-.039.115-.057.148-.1s.018-.111.049-.147.115-.057.147-.1.018-.11.05-.148.115-.057.147-.1.018-.11.049-.148c.07-.085.177-.112.246-.2.014-.017-.016-.085,0-.1s.087-.033.1-.05c.026-.037.018-.1.049-.147.012-.017.092-.034.1-.049a1.134,1.134,0,0,1,.1-.2c.035-.055.066-.089.1-.148.02-.037.022-.1.049-.147.012-.02.091-.033.1-.05s-.015-.074,0-.1.079-.069.1-.1.027-.064.049-.1.042-.036.05-.049a.527.527,0,0,0,.1-.2,2.421,2.421,0,0,1,.246-.541c.046-.095.1-.2.148-.295.02-.041.022-.1.049-.148.014-.026.09-.077.1-.1.039-.1.01-.226.049-.345.009-.025.093-.079.1-.1.013-.045-.011-.1,0-.148a5.7,5.7,0,0,0,.1-.639,5.257,5.257,0,0,0-.049-2.067,1.155,1.155,0,0,1-.1-.295.756.756,0,0,0-.1-.246,4.1,4.1,0,0,1-.147-.443,1.434,1.434,0,0,0-.1-.246c-.045-.106-.1-.23-.147-.344-.024-.05-.095-.12-.1-.2s-.095-.077-.1-.147-.026-.054-.049-.1c-.034-.063-.011-.135-.05-.2-.022-.035-.07-.053-.1-.1s-.1-.093-.1-.148-.092-.077-.148-.147c-.014-.017.016-.085,0-.1a1.491,1.491,0,0,1-.246-.2c-.047-.055-.052-.143-.1-.2a3.4,3.4,0,0,1-.246-.246,1.162,1.162,0,0,0-.2-.246c-.036-.027-.11-.018-.148-.049-.068-.056-.125-.14-.2-.2-.145-.116-.293-.236-.442-.345-.031-.022-.07-.08-.1-.1a1.764,1.764,0,0,1-.246-.148,2,2,0,0,0-.246-.147c-.09-.053-.194-.116-.344-.2-.032-.017-.071-.084-.1-.1-.113-.062-.273-.077-.442-.148-.03-.013-.075-.088-.1-.1s-.069.007-.1,0c-.044-.011-.085-.034-.148-.05,0,0-.144-.045-.147-.049a1.978,1.978,0,0,0-.64-.2,3.1,3.1,0,0,0-1.624.05c-.136.038-.306.1-.442.147-.019.007,0,.047-.05.049a.656.656,0,0,0-.147,0c0,.005,0,.048,0,.05a1.116,1.116,0,0,0-.3.1c-.158.1-.428.207-.64.344-.027.018.008.047-.049.05a.807.807,0,0,0-.246.1c-.062.039-.09.111-.148.148-.1.062-.186.077-.295.147-.027.018.008.046-.049.049-.089,0-.414.388-.492.492a9.278,9.278,0,0,0-.541.837c-.016.026-.047-.007-.05.049,0,.083-.026.054-.049.1s-.022.1-.049.148c-.017.032-.084.071-.1.1a2.888,2.888,0,0,0-.1.3c-.006.014-.039.009-.049.049s.012.071,0,.1-.084.071-.1.1a3.354,3.354,0,0,0-.147.492c-.026.084-.075.2-.1.295-.048.193-.04.358-.1.59a4.415,4.415,0,0,0,0,1.87c.007.017-.013.087,0,.1s.047-.006.049,0-.014.087,0,.1.047-.007.049,0-.014.086,0,.1.046-.006.05,0-.015.086,0,.1c.048.04.065.041.1.1s.062.139.1.2.112.095.148.147c.012.018-.016.085,0,.1a.419.419,0,0,1,.1.1c.041.058.108.093.147.148.054.074.052.146.1.2a3.537,3.537,0,0,0,.393.3c.066.05.151.119.246.2.028.023.075.085.1.1.094.057.2.049.295.1.025.014-.006.046.049.049a.505.505,0,0,1,.1.05c.051.023.121.094.2.1a1.776,1.776,0,0,1,.246.1c.085.032.133.024.2.049.094.038.305.083.443.148.023.011-.005.047.049.049.092,0,.122.092.2.148.017.013.085-.016.1,0s-.007.045,0,.049.086-.015.1,0-.007.047,0,.05.086-.015.1,0a.333.333,0,0,0,.2.147c.014.1.1.131.147.2.113.117.312-.019.425.1.033.247.034.295-.08.394.019.091-.056.118-.1.2-.009.018.015.086,0,.1-.1.083-.087.112-.1.344,0,.032.02.177,0,.2a.358.358,0,0,0-.1.2c-.023.1.005.094-.049.148-.072.072.047.447.049.59-.135-.051-.038.148-.1.2-.005,0-.047-.006-.049,0-.037.089-.02.194-.049.246s-.192.092-.2.2c0,0-.041.137-.049.147-.034.042-.111.013-.148.049-.015.016.017.085,0,.1s-.04-.008-.049,0c-.064.062-.086.083-.148.147-.079-.013-.084.047-.147.05-.114.017-.1.177-.148.246-.011.016-.084-.014-.1,0s.034.212-.1.2a2.3,2.3,0,0,1-.639.1c-.109-.027-.07.094-.148.1-.063,0-.062.082-.1.1s-.073-.015-.1,0c-.12.067-.253.088-.344.2a.778.778,0,0,1-.443-.147c-.063.032-.137.009-.2.049-.038.025-.06.128-.1.148a1.016,1.016,0,0,1-.2.049.644.644,0,0,1-.148.049c-.223,0-.342-.2-.541-.295-.148.112-.422.021-.59,0-.144.012-.17-.093-.246-.148-.1-.029-.323.061-.344-.049-.1.04-.111-.086-.148-.1-.057-.019-.143.025-.2,0-.023-.011.005-.047-.049-.049-.085,0-.12-.091-.2-.148-.093-.069-.2-.093-.246-.2-.092-.072-.326,0-.394-.1-.1.023-.093-.071-.1-.148a.135.135,0,0,1-.148-.1c-.391-.1-.634-.465-.885-.788-.045-.057-.111-.093-.148-.147s-.055-.131-.1-.2c-.018-.027-.046.008-.049-.049s-.076-.062-.1-.1c-.011-.019.016-.086,0-.1s-.046.006-.049,0-.243-.486-.246-.492.015-.087,0-.1-.046.006-.049,0l-.1-.2c-.008-.018-.045-.092-.049-.1-.114-.214-.2-.456-.344-.688a2.465,2.465,0,0,1-.148-.394c-.045-.182-.138-.464-.2-.689a8.212,8.212,0,0,1-.247-1.673c-.006-.115.011-.239,0-.344a11.115,11.115,0,0,1-.049-1.525,6.9,6.9,0,0,1,.148-.837c.007-.036-.024-.172,0-.2,0,0,.048,0,.049,0,.008-.037-.025-.172,0-.2,0,0,.048,0,.049,0,.01-.038-.026-.171,0-.2s.034-.036.05-.1.095-.282.147-.443c.023-.072.076-.157.1-.246a1.587,1.587,0,0,1,.1-.246c.028-.073.016-.124.049-.2.011-.023.046,0,.049-.049a.505.505,0,0,1,.049-.1c.024-.05.095-.12.1-.2a.613.613,0,0,1,.1-.2.533.533,0,0,1,.049-.049c.035-.068.014-.128.05-.2.016-.033.083-.071.1-.1s-.015-.086,0-.1.092-.037.1-.049c.035-.065.011-.132.049-.2.015-.026.046.007.049-.049a.535.535,0,0,1,.049-.1c.02-.03.082-.07.1-.1.036-.064.012-.13.049-.2.011-.021.09-.032.1-.049a1.251,1.251,0,0,1,.1-.246c.021-.032.079-.069.1-.1s.027-.064.049-.1c.034-.054.063-.092.1-.147s.064-.093.1-.148c.015-.023.042-.037.049-.049.018-.031.023-.114.049-.148.074-.093.237-.226.345-.344.121-.134.227-.227.344-.345s.23-.243.345-.344c.041-.037.045-.066.1-.1.031-.02.066-.027.1-.05s.067-.075.1-.1.166-.193.246-.2c.042,0,.109-.074.147-.1s.161-.193.246-.2.119-.138.2-.2c.04-.031.107-.026.148-.049.026-.014-.007-.046.049-.049.083,0,.1-.143.2-.148.042,0,.109-.074.147-.1s.066-.027.1-.049c.079-.055.126-.1.2-.148s.174-.058.246-.1c.036-.021.067-.076.1-.1a.789.789,0,0,1,.1-.049c.079-.043.163-.056.246-.1.033-.017.071-.083.1-.1s.086.015.1,0-.006-.046,0-.049a7.685,7.685,0,0,1,2.067-.689c.089-.017.183-.025.295-.049.237-.05.564-.044.885-.1a7.515,7.515,0,0,1,1.87.049c.156.019.3.023.443.049a9.192,9.192,0,0,1,1.033.3c.124.04.275.054.394.1.019.007,0,.046.049.049.107,0,.132.057.246.1s.2.039.344.1c.1.04.2.106.295.147.22.1.43.184.64.295.057.031.088.067.148.1s.123.094.2.1a.507.507,0,0,1,.1.049,1.125,1.125,0,0,1,.147.05c.02.011.033.09.05.1s.079-.016.1,0c.041.033.057.118.1.148.018.012.086-.017.1,0s.033.087.049.1.085-.016.1,0a4.273,4.273,0,0,0,.64.492c.084.063.162.18.246.246.017.014.085-.016.1,0a1.666,1.666,0,0,0,.2.2c.091.078.168.177.246.246a1.942,1.942,0,0,1,.345.344,1.346,1.346,0,0,0,.1.1c.056.063.151.137.2.2.013.018-.017.085,0,.1s.087.033.1.049-.016.085,0,.1.088.034.1.05-.016.085,0,.1a.619.619,0,0,1,.147.2c.017.027.046-.008.049.049a.657.657,0,0,0,.1.2c.034.054.063.092.1.147.015.024.042.037.049.05a.516.516,0,0,1,.1.2c0,.073.1.155.147.246s.1.2.148.3c.013.025.046-.006.049.049a1.592,1.592,0,0,0,.1.3c.01.023.046,0,.049.049a.5.5,0,0,0,.049.1c.035.076.057.142.1.246a1.139,1.139,0,0,1,.148.3,1.309,1.309,0,0,0,.1.246c.011.023.047,0,.05.049a1.889,1.889,0,0,0,.1.295c.008.02.047,0,.049.049a.208.208,0,0,0,0,.05.832.832,0,0,1,.049.147c.015.059.066.3.1.492,0,.005.047.01.049.049a1.447,1.447,0,0,0,0,.246,1.712,1.712,0,0,1,.049.3c.014.156.084.4.1.59.031.4,0,.824,0,1.23a9.207,9.207,0,0,1-.1,1.82c-.017.083-.027.211-.049.3,0,.012-.047,0-.049.049a.653.653,0,0,1,0,.147c-.04.033-.034.038-.049.1,0,0-.045.144-.05.147a1.057,1.057,0,0,0-.147.3,1.526,1.526,0,0,1-.1.295c-.011.024-.046,0-.049.049a.16.16,0,0,1,0,.049c-.011.024-.093.081-.1.1-.013.043.017.1,0,.147-.009.022-.047,0-.049.049a1.045,1.045,0,0,1-.05.148c-.015.033-.082.07-.1.1s.015.087,0,.1-.046-.007-.049,0,.015.086,0,.1-.046-.006-.049,0,.014.087,0,.1a1.342,1.342,0,0,0-.148.246c-.014.026-.046-.007-.049.049a1.255,1.255,0,0,1-.049.147c-.021.036-.076.068-.1.1-.037.05-.046.116-.1.2-.018.027-.046-.008-.049.049-.005.083-.143.1-.148.2,0,.068-.129.124-.2.2-.2.215-.4.406-.639.639-.1.1-.174.283-.345.3.028.109-.094.07-.1.148,0,.014-.085.085-.1.1-.041.04-.106.059-.147.1-.1.091-.3.268-.443.393-.043.039-.1.059-.148.1s-.057.117-.1.147c-.018.013-.085-.016-.1,0s-.033.088-.05.1-.085-.016-.1,0-.034.088-.049.1c-.061.038-.136.01-.2.049-.037.024-.051.071-.1.1-.08.047-.144.082-.246.147-.02.013-.041.045-.05.049-.066.036-.127.014-.2.05-.027.013-.077.089-.1.1a1.884,1.884,0,0,1-.2.049c-.111.035-.238.05-.393.1-.093.028-.245.108-.345.147-.074.03-.118.02-.2.049-.115.043-.237.109-.345.148a1.287,1.287,0,0,0-.295.1c-.054.035-.236.079-.344.148-.046.029-.145.045-.246.1-.026.014.006.047-.05.05-.076,0-.151.1-.246.147a3.54,3.54,0,0,0-.344.148c-.027.017.008.046-.049.049s-.258.143-.345.148c-.025,0-.068.036-.1.049a11.105,11.105,0,0,1-1.328.393c-.1.026-.093,0-.148.05-.005,0-.042,0-.049,0A1.6,1.6,0,0,1,789.757,3663.3Z" fill="#fff" fill-rule="evenodd"/>
        </g>
      </g>
    </g>
  </g>
</svg>
