<svg xmlns="http://www.w3.org/2000/svg" width="348.507" height="34" viewBox="0 0 348.507 34">
  <g id="グループ_9699" data-name="グループ 9699" transform="translate(-52 377)">
    <g id="グループ_9698" data-name="グループ 9698" transform="translate(12 -404)">
      <g id="グループ_9658" data-name="グループ 9658">
        <path id="パス_2638" data-name="パス 2638" d="M55.759,40.863c-.117.607-1.378,1.167-1.378,1.167C56.039,43.291,56.67,43.2,56.67,43.2,55.969,42.66,55.759,40.863,55.759,40.863Z" fill="#231815"/>
        <path id="パス_2639" data-name="パス 2639" d="M60.292,40.127l.042,1.473a2.066,2.066,0,0,0,1.158-.674A5.46,5.46,0,0,1,60.292,40.127Z" fill="#231815"/>
        <path id="パス_2640" data-name="パス 2640" d="M59.683,42.03s-1.261-.56-1.378-1.167c0,0-.21,1.8-.91,2.334C57.4,43.2,58.025,43.291,59.683,42.03Z" fill="#231815"/>
        <path id="パス_2641" data-name="パス 2641" d="M59.169,35.072a1.681,1.681,0,0,1-1.238.117,8.612,8.612,0,0,0,3.76,5.463S61.971,38.038,59.169,35.072Z" fill="#231815"/>
        <path id="パス_2642" data-name="パス 2642" d="M59.892,39.558a15.924,15.924,0,0,1-1.3-1.578v1.768s-.337,1.326,1.3,1.831Z" fill="#231815"/>
        <path id="パス_2643" data-name="パス 2643" d="M54.172,41.579c1.641-.506,1.3-1.831,1.3-1.831V37.98a15.924,15.924,0,0,1-1.3,1.578Z" fill="#231815"/>
        <path id="パス_2644" data-name="パス 2644" d="M54.74,34.823a.978.978,0,0,1-.4-.989s-2.862-.21-5.345,2.946C48.995,36.78,51.331,37.706,54.74,34.823Z" fill="#231815"/>
        <path id="パス_2645" data-name="パス 2645" d="M54.9,35.072c-2.8,2.966-2.522,5.58-2.522,5.58a8.612,8.612,0,0,0,3.76-5.463A1.681,1.681,0,0,1,54.9,35.072Z" fill="#231815"/>
        <path id="パス_2646" data-name="パス 2646" d="M52.4,38.464a10.687,10.687,0,0,1,1.052-2.231,8.548,8.548,0,0,1-2.4,1c-.715.442-1.052,2.091-1.052,2.091A6.024,6.024,0,0,0,52.4,38.464Z" fill="#231815"/>
        <path id="パス_2647" data-name="パス 2647" d="M50.384,37.412a9.448,9.448,0,0,1-1.495-.19s-.042,1.347.758,1.7A4.132,4.132,0,0,1,50.384,37.412Z" fill="#231815"/>
        <path id="パス_2648" data-name="パス 2648" d="M53.73,41.6l.042-1.473a5.46,5.46,0,0,1-1.2.8A2.072,2.072,0,0,0,53.73,41.6Z" fill="#231815"/>
        <path id="パス_2649" data-name="パス 2649" d="M52,39.221a11.2,11.2,0,0,1-1.662.527,2.965,2.965,0,0,0,1.494.82A6.19,6.19,0,0,1,52,39.221Z" fill="#231815"/>
        <path id="パス_2650" data-name="パス 2650" d="M63.68,37.412a4.132,4.132,0,0,1,.737,1.515c.8-.358.757-1.7.757-1.7A9.306,9.306,0,0,1,63.68,37.412Z" fill="#231815"/>
        <path id="パス_2651" data-name="パス 2651" d="M59.724,33.834a.979.979,0,0,1-.4.989c3.409,2.883,5.745,1.957,5.745,1.957C62.586,33.624,59.724,33.834,59.724,33.834Z" fill="#231815"/>
        <path id="パス_2652" data-name="パス 2652" d="M51.015,32.95l-.526-.315s-.211.084-.673.715A5.928,5.928,0,0,1,51.015,32.95Z" fill="#231815"/>
        <path id="パス_2653" data-name="パス 2653" d="M48.889,34.992c-.42.442-.231,1.494-.231,1.494l1.305-1.305A3.1,3.1,0,0,1,48.889,34.992Z" fill="#231815"/>
        <path id="パス_2654" data-name="パス 2654" d="M50.489,34.781c.4-.274,2.084-1.157,2.084-1.157a5.256,5.256,0,0,0-1.263-.316,2.43,2.43,0,0,0-2.239,1.137s-.14.187.3.357A1.65,1.65,0,0,0,50.489,34.781Z" fill="#231815"/>
        <path id="パス_2655" data-name="パス 2655" d="M64.1,35.181l1.305,1.305s.19-1.052-.232-1.494A3.088,3.088,0,0,1,64.1,35.181Z" fill="#231815"/>
        <path id="パス_2656" data-name="パス 2656" d="M60.608,36.233a10.687,10.687,0,0,1,1.052,2.231,6.024,6.024,0,0,0,2.4.863s-.336-1.649-1.052-2.091A8.548,8.548,0,0,1,60.608,36.233Z" fill="#231815"/>
        <path id="パス_2657" data-name="パス 2657" d="M61.492,33.624s1.683.883,2.083,1.157a1.652,1.652,0,0,0,1.116.021c.442-.17.3-.357.3-.357a2.43,2.43,0,0,0-2.239-1.137A5.246,5.246,0,0,0,61.492,33.624Z" fill="#231815"/>
        <path id="パス_2658" data-name="パス 2658" d="M63.049,32.95a5.942,5.942,0,0,1,1.2.4c-.463-.631-.674-.715-.674-.715Z" fill="#231815"/>
        <path id="パス_2659" data-name="パス 2659" d="M62.06,39.222a6.177,6.177,0,0,1,.168,1.346,2.979,2.979,0,0,0,1.495-.82A11.19,11.19,0,0,1,62.06,39.222Z" fill="#231815"/>
        <path id="パス_2660" data-name="パス 2660" d="M56.665,47.186c.263-2.066-.133-2.565-.133-2.565-.115.875-1.567,1.956-1.567,1.956C55.549,46.374,56.665,47.186,56.665,47.186Z" fill="#231815"/>
        <path id="パス_2661" data-name="パス 2661" d="M52.154,41.58a5.475,5.475,0,0,1-.093,1.439l1.255-.773A2.067,2.067,0,0,0,52.154,41.58Z" fill="#231815"/>
        <path id="パス_2662" data-name="パス 2662" d="M53.692,44.372s1.662-.717,2.477-.379c0,0-.234-.593-2.155-1.4C54.014,42.6,54.159,43.967,53.692,44.372Z" fill="#231815"/>
        <path id="パス_2663" data-name="パス 2663" d="M51.817,41.545s-2.4,1.065-3.571,4.974a1.682,1.682,0,0,1,.72,1.013A8.612,8.612,0,0,0,51.817,41.545Z" fill="#231815"/>
        <path id="パス_2664" data-name="パス 2664" d="M53.519,42.639l-1.75,1.01a15.856,15.856,0,0,1-.715,1.919l1.531-.884A1.562,1.562,0,0,0,53.519,42.639Z" fill="#231815"/>
        <path id="パス_2665" data-name="パス 2665" d="M56.379,47.593a1.562,1.562,0,0,0-2.238-.214l-1.531.883a16.085,16.085,0,0,1,2.019.341Z" fill="#231815"/>
        <path id="パス_2666" data-name="パス 2666" d="M50.245,50.479a.98.98,0,0,1-.657.841s1.249,2.583,5.224,3.156C54.812,54.476,54.446,51.99,50.245,50.479Z" fill="#231815"/>
        <path id="パス_2667" data-name="パス 2667" d="M56.476,49.614a8.612,8.612,0,0,0-6.611-.524,1.685,1.685,0,0,1,.518,1.13C54.351,51.164,56.476,49.614,56.476,49.614Z" fill="#231815"/>
        <path id="パス_2668" data-name="パス 2668" d="M56.512,52.328a5.994,5.994,0,0,0-1.947-1.646,10.7,10.7,0,0,1-2.457.2,8.538,8.538,0,0,1,2.067,1.576C54.916,52.86,56.512,52.328,56.512,52.328Z" fill="#231815"/>
        <path id="パス_2669" data-name="パス 2669" d="M54.664,52.957a9.4,9.4,0,0,1,.583,1.389s1.188-.637,1.1-1.509A4.147,4.147,0,0,1,54.664,52.957Z" fill="#231815"/>
        <path id="パス_2670" data-name="パス 2670" d="M56.618,47.965l-1.3.7a5.478,5.478,0,0,1,1.293.638A2.07,2.07,0,0,0,56.618,47.965Z" fill="#231815"/>
        <path id="パス_2671" data-name="パス 2671" d="M55.421,50.649a11.157,11.157,0,0,1,1.287,1.177,2.98,2.98,0,0,0-.036-1.705A6.162,6.162,0,0,1,55.421,50.649Z" fill="#231815"/>
        <path id="パス_2672" data-name="パス 2672" d="M48.96,40.047c-.71-.514-1.855.2-1.855.2a9.366,9.366,0,0,1,.911,1.2A4.128,4.128,0,0,1,48.96,40.047Z" fill="#231815"/>
        <path id="パス_2673" data-name="パス 2673" d="M46.9,46.657a.978.978,0,0,1,1.056-.148c.793-4.394-1.177-5.954-1.177-5.954C45.283,44.284,46.9,46.657,46.9,46.657Z" fill="#231815"/>
        <path id="パス_2674" data-name="パス 2674" d="M51.431,55.48a5.972,5.972,0,0,1-.946-.839l-.01.614A2.219,2.219,0,0,0,51.431,55.48Z" fill="#231815"/>
        <path id="パス_2675" data-name="パス 2675" d="M53.315,55.461c.594.144,1.41-.546,1.41-.546l-1.782-.478A3.089,3.089,0,0,1,53.315,55.461Z" fill="#231815"/>
        <path id="パス_2676" data-name="パス 2676" d="M52.333,54.181c-.437-.209-2.044-1.225-2.044-1.225a5.27,5.27,0,0,0,.358,1.251,2.433,2.433,0,0,0,2.1,1.371s.231.028.157-.442A1.654,1.654,0,0,0,52.333,54.181Z" fill="#231815"/>
        <path id="パス_2677" data-name="パス 2677" d="M45.173,41.358a3.091,3.091,0,0,1,.7.835l.477-1.783S45.345,40.772,45.173,41.358Z" fill="#231815"/>
        <path id="パス_2678" data-name="パス 2678" d="M48.2,42.113a8.555,8.555,0,0,1,.331,2.579,10.7,10.7,0,0,1,1.4-2.027,6,6,0,0,0-.452-2.509S48.226,41.272,48.2,42.113Z" fill="#231815"/>
        <path id="パス_2679" data-name="パス 2679" d="M45.251,41.872c-.369-.3-.461-.084-.461-.084a2.432,2.432,0,0,0,.135,2.508,5.258,5.258,0,0,0,.905.935s-.077-1.9-.04-2.382A1.655,1.655,0,0,0,45.251,41.872Z" fill="#231815"/>
        <path id="パス_2680" data-name="パス 2680" d="M44.214,42.98a2.212,2.212,0,0,0-.282.942l.536.3A5.966,5.966,0,0,1,44.214,42.98Z" fill="#231815"/>
        <path id="パス_2681" data-name="パス 2681" d="M50.393,41.94a6.174,6.174,0,0,1,1.083-.819,2.98,2.98,0,0,0-1.458-.884A11.183,11.183,0,0,1,50.393,41.94Z" fill="#231815"/>
        <path id="パス_2682" data-name="パス 2682" d="M57.335,47.186s1.116-.812,1.7-.609c0,0-1.451-1.081-1.566-1.956C57.469,44.621,57.073,45.12,57.335,47.186Z" fill="#231815"/>
        <path id="パス_2683" data-name="パス 2683" d="M61.939,43.019a5.442,5.442,0,0,1-.092-1.439,2.067,2.067,0,0,0-1.162.666Z" fill="#231815"/>
        <path id="パス_2684" data-name="パス 2684" d="M59.986,42.6c-1.92.805-2.155,1.4-2.155,1.4.816-.338,2.477.379,2.477.379C59.841,43.967,59.986,42.6,59.986,42.6Z" fill="#231815"/>
        <path id="パス_2685" data-name="パス 2685" d="M65.755,46.519c-1.167-3.909-3.572-4.974-3.572-4.974a8.611,8.611,0,0,0,2.852,5.987A1.682,1.682,0,0,1,65.755,46.519Z" fill="#231815"/>
        <path id="パス_2686" data-name="パス 2686" d="M62.231,43.649l-1.749-1.01a1.561,1.561,0,0,0,.933,2.045l1.531.884A16.033,16.033,0,0,1,62.231,43.649Z" fill="#231815"/>
        <path id="パス_2687" data-name="パス 2687" d="M57.622,47.593l1.749,1.01a16.11,16.11,0,0,1,2.02-.341l-1.532-.883A1.56,1.56,0,0,0,57.622,47.593Z" fill="#231815"/>
        <path id="パス_2688" data-name="パス 2688" d="M63.756,50.479c-4.2,1.511-4.567,4-4.567,4,3.975-.572,5.224-3.156,5.224-3.156A.978.978,0,0,1,63.756,50.479Z" fill="#231815"/>
        <path id="パス_2689" data-name="パス 2689" d="M57.525,49.614s2.124,1.549,6.093.606a1.682,1.682,0,0,1,.517-1.13A8.609,8.609,0,0,0,57.525,49.614Z" fill="#231815"/>
        <path id="パス_2690" data-name="パス 2690" d="M57.488,52.328s1.6.532,2.337.134a8.529,8.529,0,0,1,2.068-1.576,10.664,10.664,0,0,1-2.458-.205A6.014,6.014,0,0,0,57.488,52.328Z" fill="#231815"/>
        <path id="パス_2691" data-name="パス 2691" d="M58.753,54.346a9.4,9.4,0,0,1,.583-1.389,4.141,4.141,0,0,1-1.68-.12C57.566,53.709,58.753,54.346,58.753,54.346Z" fill="#231815"/>
        <path id="パス_2692" data-name="パス 2692" d="M57.382,47.965a2.07,2.07,0,0,0,.005,1.34,5.431,5.431,0,0,1,1.292-.639Z" fill="#231815"/>
        <path id="パス_2693" data-name="パス 2693" d="M58.579,50.649a6.189,6.189,0,0,1-1.251-.528,2.98,2.98,0,0,0-.036,1.705A11.148,11.148,0,0,1,58.579,50.649Z" fill="#231815"/>
        <path id="パス_2694" data-name="パス 2694" d="M65.041,40.047a4.129,4.129,0,0,1,.943,1.4,9.4,9.4,0,0,1,.912-1.2S65.751,39.533,65.041,40.047Z" fill="#231815"/>
        <path id="パス_2695" data-name="パス 2695" d="M67.156,47.424s-.995-1.129-1.5-.3a.865.865,0,0,0,.558,1.391s1.99.76,3.505-1.864a4.232,4.232,0,0,0,.332-2.425A6.3,6.3,0,0,0,67.156,47.424Z" fill="#231815"/>
        <path id="パス_2696" data-name="パス 2696" d="M67.226,40.555s-1.97,1.56-1.178,5.954a.978.978,0,0,1,1.057.148S68.718,44.284,67.226,40.555Z" fill="#231815"/>
        <path id="パス_2697" data-name="パス 2697" d="M62.569,55.48a2.222,2.222,0,0,0,.957-.225l-.01-.614A5.967,5.967,0,0,1,62.569,55.48Z" fill="#231815"/>
        <path id="パス_2698" data-name="パス 2698" d="M61.057,54.437l-1.782.478s.817.69,1.41.546A3.089,3.089,0,0,1,61.057,54.437Z" fill="#231815"/>
        <path id="パス_2699" data-name="パス 2699" d="M63.711,52.956s-1.607,1.016-2.044,1.225a1.66,1.66,0,0,0-.576.955c-.074.47.158.442.158.442a2.432,2.432,0,0,0,2.1-1.371A5.27,5.27,0,0,0,63.711,52.956Z" fill="#231815"/>
        <path id="パス_2700" data-name="パス 2700" d="M64.142,50.021c-.469.863,1.012,1.151,1.012,1.151a6.444,6.444,0,0,0-1.36,4.083,4.571,4.571,0,0,0,1.971-1.479c1.515-2.624-.139-3.968-.139-3.968A.865.865,0,0,0,64.142,50.021Z" fill="#231815"/>
        <path id="パス_2701" data-name="パス 2701" d="M68.127,42.193a3.09,3.09,0,0,1,.7-.835c-.173-.586-1.179-.948-1.179-.948Z" fill="#231815"/>
        <path id="パス_2702" data-name="パス 2702" d="M65.469,44.692a8.522,8.522,0,0,1,.331-2.579c-.025-.841-1.285-1.957-1.285-1.957a6.018,6.018,0,0,0-.452,2.509A10.671,10.671,0,0,1,65.469,44.692Z" fill="#231815"/>
        <path id="パス_2703" data-name="パス 2703" d="M68.749,41.872a1.652,1.652,0,0,0-.539.977c.037.482-.039,2.382-.039,2.382a5.26,5.26,0,0,0,.9-.935,2.432,2.432,0,0,0,.135-2.508S69.119,41.574,68.749,41.872Z" fill="#231815"/>
        <path id="パス_2704" data-name="パス 2704" d="M70.069,43.922a2.23,2.23,0,0,0-.283-.942,5.946,5.946,0,0,1-.253,1.239Z" fill="#231815"/>
        <path id="パス_2705" data-name="パス 2705" d="M63.607,41.941a11.175,11.175,0,0,1,.376-1.7,2.972,2.972,0,0,0-1.458.883A6.148,6.148,0,0,1,63.607,41.941Z" fill="#231815"/>
        <path id="パス_2706" data-name="パス 2706" d="M57,27A17,17,0,1,0,74,44,17.019,17.019,0,0,0,57,27ZM71.058,44a14.028,14.028,0,0,1-.467,3.6A5.176,5.176,0,0,1,68.2,48.933a2.989,2.989,0,0,1-2.126-.174c-.527-.293-1.726-1.638-2.679-2.21a13.492,13.492,0,0,0-1.523-1.006c-3.134-1.81-4.181-1.214-4.181-1.214s.007,1.205,3.141,3.014a12.03,12.03,0,0,0,2.082.986,26.353,26.353,0,0,0,2.814,1.031,3.556,3.556,0,0,1,1.233,1.721,7.067,7.067,0,0,1-.047,2.878,14.034,14.034,0,0,1-19.976-.154,5.062,5.062,0,0,1,.059-2.632,2.985,2.985,0,0,1,1.214-1.754c.517-.311,2.282-.676,3.253-1.215a13.786,13.786,0,0,0,1.633-.817c3.134-1.81,3.141-3.014,3.141-3.014s-1.047-.6-4.18,1.214A12.118,12.118,0,0,0,50.162,46.9a26.532,26.532,0,0,0-2.3,1.922,3.551,3.551,0,0,1-2.107.208,6.856,6.856,0,0,1-2.329-1.366,14.062,14.062,0,0,1,10.21-17.31,4.9,4.9,0,0,1,2.082,1.305,3,3,0,0,1,.912,1.928c.01.6-.556,2.314-.574,3.425a13.47,13.47,0,0,0-.11,1.823c0,3.619,1.039,4.227,1.039,4.227s1.04-.608,1.04-4.227a12.115,12.115,0,0,0-.187-2.3,26.449,26.449,0,0,0-.515-2.953,3.557,3.557,0,0,1,.874-1.928,6.674,6.674,0,0,1,2.229-1.29A14.083,14.083,0,0,1,71.058,44Z" fill="#231815"/>
        <path id="パス_2707" data-name="パス 2707" d="M55.423,34.764a.864.864,0,0,0,.926-1.178s-.337-2.1-3.367-2.1a4.226,4.226,0,0,0-2.266.925,6.3,6.3,0,0,0,4.216.906S54.452,34.739,55.423,34.764Z" fill="#231815"/>
        <path id="パス_2708" data-name="パス 2708" d="M61.129,31.341c-3.03,0-3.367,2.1-3.367,2.1a.864.864,0,0,0,.926,1.178c.982-.025.491-1.452.491-1.452a6.445,6.445,0,0,0,4.216-.863A4.57,4.57,0,0,0,61.129,31.341Z" fill="#231815"/>
        <path id="パス_2709" data-name="パス 2709" d="M48.823,51.025s1.476-.3,1.012-1.152a.865.865,0,0,0-1.484-.212S46.7,51,48.212,53.629a4.232,4.232,0,0,0,1.935,1.5A6.293,6.293,0,0,0,48.823,51.025Z" fill="#231815"/>
        <path id="パス_2710" data-name="パス 2710" d="M46.578,47.417a6.45,6.45,0,0,0-2.856-3.22,4.57,4.57,0,0,0,.295,2.446c1.516,2.625,3.507,1.864,3.507,1.864a.864.864,0,0,0,.557-1.391C47.568,46.278,46.578,47.417,46.578,47.417Z" fill="#231815"/>
      </g>
      <g id="グループ_9662" data-name="グループ 9662">
        <g id="グループ_9659" data-name="グループ 9659">
          <path id="パス_2711" data-name="パス 2711" d="M98.182,40.267c-.12,1.74-.1,4.5-.08,5.641.06,1.541.08,2.561.1,3.141a3.489,3.489,0,0,1-.16,1.32,1.279,1.279,0,0,1-2.221.18c-.14-.24-.5-.78-.66-1-.34-.44-.06-.98.48-.86a2.833,2.833,0,0,1,.68.36v-2.74a2.429,2.429,0,0,1-.46.04.851.851,0,0,1-.84-.641.544.544,0,0,1,.66-.68,3.607,3.607,0,0,1,.62.14c0-.5,0-1.02-.02-1.52a1.837,1.837,0,0,1-.36.02.846.846,0,0,1-.84-.64.555.555,0,0,1,.66-.68,2.432,2.432,0,0,1,.5.1c-.02-.841-.08-1.621-.14-2.281-.14,0-.26-.02-.34-.02l-.82.06c0,.26-.04.5-.06.74-.02.261.02,1.761-.06,2.781a13.029,13.029,0,0,1-.4,2.561,7.756,7.756,0,0,1-1.58,3.3c-.521.48-1.24.16-.981-.64a19.508,19.508,0,0,0,.741-2.841,19.42,19.42,0,0,0,.2-2.42,18.968,18.968,0,0,0-.2-2.821,9.06,9.06,0,0,0-.281-1.3c-.139-.6.06-1.04.62-1.18a1.7,1.7,0,0,1,1.7.62,3.236,3.236,0,0,1,.2.36c.14-.02.32-.04.58-.1a2.11,2.11,0,0,0,1-.48c.241-.2.6-.74,1.3-.62a1.6,1.6,0,0,1,1.06,1.18A.773.773,0,0,1,98.182,40.267Zm9.842,5.321a1.281,1.281,0,0,1-1.36.52.734.734,0,0,1-.48.621,16.9,16.9,0,0,0,0,2.26,3.108,3.108,0,0,1-.1,1.64,1.142,1.142,0,0,1-.96.8c-.86.1-1.18-.58-1.52-.941-.34-.32-.46-.66-.26-.94.34-.42,1.04.08,1.04.08a16.489,16.489,0,0,0-.14-2.921h-.04a7.109,7.109,0,0,0-1-.02c-.14.261-.34,1.061-.681,1.781a4.6,4.6,0,0,1-1.68,2.14c-.64.38-1.12-.2-.86-.7a15.96,15.96,0,0,0,1.161-2.98,2.208,2.208,0,0,1-.521.04.9.9,0,0,1-.82-.62.543.543,0,0,1,.66-.661c.44.061.661.16.9.2.04-.22.06-.46.1-.68a.881.881,0,0,1,1.441-.56,1.2,1.2,0,0,1,.58,1.081,1.517,1.517,0,0,0,.7-.4,1.826,1.826,0,0,1,.92-.58.846.846,0,0,0-.1-.14,4.056,4.056,0,0,1-.62-.92h-.28c-.64,0-1.46,0-2.221.04a6.618,6.618,0,0,1-1.62,1.64c-.66.46-1.26-.1-.82-.76.12-.2.26-.4.4-.64a1.632,1.632,0,0,1-.36.04.85.85,0,0,1-.84-.64.544.544,0,0,1,.66-.68c.42.04.68.16,1.1.22.26-.56.52-1.16.741-1.781-.1.02-.221.04-.361.061-.62.08-.54.179-1,.179a.868.868,0,0,1-.84-.64.55.55,0,0,1,.66-.68,12.992,12.992,0,0,0,1.581.26h.239a9.952,9.952,0,0,0,.54-2.88.955.955,0,0,1,1.521-.72,1.5,1.5,0,0,1,.48,2.14c-.08.18-.2.7-.36,1.26a3.418,3.418,0,0,0,1.26-.38.5.5,0,0,1,0-.6,8.174,8.174,0,0,0,.7-1.7.865.865,0,0,1,1.261-.581,1.092,1.092,0,0,1,.239,1.781c-.139.14-.279.34-.459.54a1.638,1.638,0,0,1,.84,1.08c.12.6-.381,1.061-1.3.961-.421-.041-1.381-.121-1.721-.141-.14,0-.72-.02-1.14-.02a13.479,13.479,0,0,1-.86,1.861c.54-.04,1.1-.08,1.56-.1a2.832,2.832,0,0,1-.24-1.221c.08-.62.78-.54,1.08-.06.14.2.34.5.56.8a1.618,1.618,0,0,1,1.381-.62,1.591,1.591,0,0,1,1.14,1.18c.1.58-.36,1.02-1.2.98a6.1,6.1,0,0,0,1.06.8A.661.661,0,0,1,108.024,45.588Zm-9.282-8c-.18-.56.36-.94.88-.58a3.771,3.771,0,0,1,1.4,1.381,1.016,1.016,0,0,1-1.06,1.54c-.48-.08-.74-.42-.84-1.08A6.309,6.309,0,0,0,98.742,37.586Z"/>
          <path id="パス_2712" data-name="パス 2712" d="M125.144,46.628c-.421-.04-1.381-.12-1.721-.14-.18,0-.44,0-.76-.02-.44,0-1.5,0-2.761.02.04.941.1,1.741.14,2.041a7.573,7.573,0,0,1,.061,1.9,1.528,1.528,0,0,1-1.621,1.5c-1.02,0-1.461-.981-1.7-1.381-.18-.34-.74-.9-.4-1.36.44-.58,1.12.02,1.42.24.06-.94.08-1.94.06-2.921-2.381.02-4.761.06-5,.1-.62.08-.52.181-1,.181a.868.868,0,0,1-.84-.641.562.562,0,0,1,.68-.68,9.444,9.444,0,0,0,1.56.261c.14,0,2.321,0,4.581-.041-.02-.94-.08-1.86-.16-2.6v-.02c-2.12.04-4.2.08-4.441.1-.62.1-.54.2-1,.18a.848.848,0,0,1-.841-.64.557.557,0,0,1,.661-.681,8.123,8.123,0,0,0,1.58.261c.12,0,1.961,0,3.941-.02-.08-.58-.2-1.2-.26-1.6a3.145,3.145,0,0,1-.06-.54,7.4,7.4,0,0,1-3.061-.2c-.2-.08-.62-.24-.6-.68a.619.619,0,0,1,.62-.6,19.851,19.851,0,0,0,3.921-.8,12.782,12.782,0,0,0,2.72-1.341c.881-.58,1.881.4,1.521,1.521a1.828,1.828,0,0,1-1.461,1.34,9.188,9.188,0,0,0-.92.24,3.093,3.093,0,0,1-.3.08,1.48,1.48,0,0,1,.36.84,7.391,7.391,0,0,1-.08,1.7c1.04-.02,1.941-.061,2.361-.081a2.516,2.516,0,0,0,1.24-.48,1.611,1.611,0,0,1,1.38-.6,1.573,1.573,0,0,1,1.12,1.161c.121.62-.379,1.08-1.3.98-.44-.06-1.38-.14-1.72-.16h-.76c-.44-.02-1.341,0-2.4,0-.04.72-.04,1.68-.02,2.62,1.281-.02,2.381-.06,2.841-.1a2.352,2.352,0,0,0,1.22-.46,1.381,1.381,0,0,1,2.521.56C126.584,46.289,126.063,46.729,125.144,46.628Z"/>
          <path id="パス_2713" data-name="パス 2713" d="M135.476,45.128a.7.7,0,0,1,.06.72c-.24.62-.761,1.4-.98,2.081a1.447,1.447,0,0,1-1.6,1.14,2.044,2.044,0,0,1-1.62-1.06c-.44-.72-.72-1.441-.66-3.721a16.467,16.467,0,0,0-.22-4.841c-.161-.6.22-1.02,1.02-.98a2.217,2.217,0,0,1,1.981,1.38,2.425,2.425,0,0,1-.121,1.72,10.727,10.727,0,0,0-.34,4.381c.18-.12,1.24-.76,1.481-.9A.7.7,0,0,1,135.476,45.128Zm8.222-3.081a1.515,1.515,0,0,1-.921,1.241,9.692,9.692,0,0,0-1.4.9.79.79,0,0,1-1.06-.04.661.661,0,0,1,0-.76c.06-.14.26-.46.38-.66a4.814,4.814,0,0,0,.28-.54,1.21,1.21,0,0,0-.4.08,5.078,5.078,0,0,0-1.181.74,2.413,2.413,0,0,1-1.56.5,1.968,1.968,0,0,1-1.8-1.78c.02-.8.78-.7,1.28-.721a6.113,6.113,0,0,0,2.6-.56,2.782,2.782,0,0,1,2.9.08A1.714,1.714,0,0,1,143.7,42.047Zm-1.141,6.282a1.547,1.547,0,0,1,.4,1.46,1.6,1.6,0,0,1-1.6,1.041,5.235,5.235,0,0,1-3.161-1.061,5.021,5.021,0,0,1-1.94-2.48.907.907,0,0,1,.02-.741c.24-.38.7-.34,1.06,0a5.554,5.554,0,0,0,3.081,1.2A2.242,2.242,0,0,1,142.557,48.329Z"/>
          <path id="パス_2714" data-name="パス 2714" d="M151.142,40.407c-.02.36-.1.74-.141,1.12-.04.321-.02,1.861-.18,3.061-.3,2.48-1.36,5.021-2.64,5.841-.62.421-1.281-.08-.98-.84a19.156,19.156,0,0,0,1.2-5.241,18.807,18.807,0,0,0-.08-3.06,15.64,15.64,0,0,0-.24-1.561,1,1,0,0,1,.8-1.34,1.934,1.934,0,0,1,1.94.84,1.294,1.294,0,0,1,.18.32c.44,0,1.821,0,3.241-.04-.1-1.08-.22-1.56-.3-2.1a.961.961,0,0,1,1-1.161,1.932,1.932,0,0,1,1.881,1.2,2.68,2.68,0,0,1,.04,1.38c-.04.2-.08.44-.1.62.46,0,.84-.02,1.12-.04a2.45,2.45,0,0,0,1.22-.48,1.683,1.683,0,0,1,1.4-.6,1.608,1.608,0,0,1,1.121,1.16c.12.62-.4,1.08-1.321.98-.42-.06-1.38-.14-1.72-.14a4.548,4.548,0,0,0-.58-.02C156.783,40.287,152.782,40.347,151.142,40.407Zm2.58,6.1a3.842,3.842,0,0,1,.1,2.2,1.262,1.262,0,0,1-1.68.96,1.116,1.116,0,0,1-.34-1.64,8.131,8.131,0,0,0,.6-1.62c.08-.3.2-.5.48-.561C153.322,45.769,153.582,46.208,153.722,46.508Zm8.642,3.441c0,1.1-2.121,1.76-3.921,1.74-1.921-.04-3.521-.6-3.421-3.14a11.08,11.08,0,0,0-.26-2.361.817.817,0,0,1,.841-.98,1.56,1.56,0,0,1,1.62,2.021l-.08.32c-.2,1.36-.02,1.78.6,2.1a3.459,3.459,0,0,0,2.54-.26c-.22-.46-.159-.96.321-1.04a.917.917,0,0,1,.86.48C161.724,49.189,162.344,49.309,162.364,49.949Zm-4.3-7.481a1.338,1.338,0,0,1,.42,1.48,1.254,1.254,0,0,1-2.081.04,6.787,6.787,0,0,0-1.3-1.24c-.6-.42-.3-1.081.419-1.1A3.9,3.9,0,0,1,158.063,42.468Zm4.581,4.841a1.245,1.245,0,0,1-2.04-.32,8.2,8.2,0,0,0-1.041-1.441c-.56-.48-.16-1.12.581-1.02a4.012,4.012,0,0,1,2.36,1.241A1.343,1.343,0,0,1,162.644,47.309Z"/>
          <path id="パス_2715" data-name="パス 2715" d="M171.282,44.468a3.334,3.334,0,0,1-1.561,1.38c.04,1.2.12,2.161.14,2.421a5.78,5.78,0,0,1,.02,1.66c-.12.8-.52,1.421-1.42,1.4a1.7,1.7,0,0,1-1.52-1.2c-.18-.3-.68-.8-.42-1.2.38-.54.92-.16,1.32.14.04-.6.06-1.5.06-2.5a1.626,1.626,0,0,1-1.02.06,1.486,1.486,0,0,1-1.28-1.42.714.714,0,0,1,.78-.68,8.169,8.169,0,0,0,1.52-.12c-.02-.92-.04-1.82-.08-2.52a2.984,2.984,0,0,0-.42.04,4.982,4.982,0,0,1-1.04.179.845.845,0,0,1-.84-.64.555.555,0,0,1,.66-.68,8.024,8.024,0,0,0,1.42.24h.18a1.148,1.148,0,0,1-.02-.24c-.08-.66-.26-1.62-.34-2.18-.2-1.061.3-1.36,1-1.34a1.358,1.358,0,0,1,1.46,1.22,6.8,6.8,0,0,1-.08,1.68,1.232,1.232,0,0,1,1.081-.34,1.571,1.571,0,0,1,1.12,1.16c.12.62-.38,1.06-1.3.96-.221-.019-.64-.059-1.041-.1-.02.66-.02,1.42,0,2.16a5.1,5.1,0,0,0,.76-.28C170.961,43.488,171.542,43.848,171.282,44.468Zm9.582.4c.12.6-.38,1.06-1.3.96-.419-.04-1.38-.12-1.72-.14-.2-.02-.46-.02-.76-.02h-1.22a9.549,9.549,0,0,1-.64,1.381,15.194,15.194,0,0,0,1.64-.1,2.215,2.215,0,0,0,.96-.5,1.675,1.675,0,0,1,1.381-.6,1.547,1.547,0,0,1,1.1,1.161c.1.5-.221.9-.841.98-.3.42-.68.9-1.1,1.38a11.4,11.4,0,0,0,1.441.26.707.707,0,0,1,.64.78,1.479,1.479,0,0,1-1.481,1.16,1.557,1.557,0,0,1-1.18-.38,4.6,4.6,0,0,0-.7-.419.792.792,0,0,0-.14-.1,4.733,4.733,0,0,1-2.34.9c-.7.04-.841-.679-.261-1a7.277,7.277,0,0,0,1.261-.84,2.733,2.733,0,0,1-.46-.58c-.281-.6.2-.98.74-.7.2.1.44.2.68.32a6.724,6.724,0,0,0,.66-.94c-.5,0-2.1.06-2.62.12a4.992,4.992,0,0,1-1.681,1.38c-.76.36-1.18-.24-.8-.82a17.133,17.133,0,0,0,1.38-2.7c-.52.08-.46.18-.92.16a.826.826,0,0,1-.84-.64c-.1-.4.22-.72.68-.66a11.923,11.923,0,0,0,1.4.24q.24-.75.42-1.5c-.12.02-.22.02-.28.04-.62.08-.54.18-1,.16a.826.826,0,0,1-.84-.64.561.561,0,0,1,.66-.68,9.835,9.835,0,0,0,1.58.28c.241,0,1.481-.04,2.961-.16a1.888,1.888,0,0,0,1.02-.461c-.52.02-.82-.38-.48-.9a8.488,8.488,0,0,0,.92-1.86.92.92,0,0,1,1.4-.52,1.293,1.293,0,0,1,.06,2.04c-.181.16-.361.4-.6.6a.228.228,0,0,0,.1.019,1.54,1.54,0,0,1,1.12,1.161c.12.62-.38,1.08-1.3.98-.419-.04-1.38-.12-1.72-.14-.2-.02-.46-.02-.76-.02h-.9a1.752,1.752,0,0,1,.1,1.52l1.04-.06a2.022,2.022,0,0,0,1.04-.46,1.622,1.622,0,0,1,1.381-.62A1.536,1.536,0,0,1,180.864,44.868Zm-8.562-4.9c-.18-.6.36-1.04,1.08-.56a4.531,4.531,0,0,1,1.321,1.36,1.061,1.061,0,0,1-.12,1.28,1.159,1.159,0,0,1-1.721-.159,3.036,3.036,0,0,1-.28-.941A6.9,6.9,0,0,0,172.3,39.967Zm1.46-2.381a12.45,12.45,0,0,0,4.341-1.16,1.055,1.055,0,0,1,1.661.5,1.474,1.474,0,0,1-1.361,1.921c-.3.04-.66.14-1.06.18a10.449,10.449,0,0,1-1.34.08.432.432,0,0,1,.12.08,3.853,3.853,0,0,1,1.28,1.32,1.035,1.035,0,0,1-.12,1.261,1.092,1.092,0,0,1-1.66-.161,2.462,2.462,0,0,1-.28-.92,7.784,7.784,0,0,0-.26-.96.622.622,0,0,1,.16-.66,5.081,5.081,0,0,1-1.721-.34C172.882,38.407,172.982,37.646,173.762,37.586Z"/>
          <path id="パス_2716" data-name="パス 2716" d="M197.7,43.708c-.64.06-1.2.02-1.94.08-.08.62-.18,1.6-.34,2.38a11.208,11.208,0,0,1-1.2,3.481,5.144,5.144,0,0,1-1.641,2,.721.721,0,0,1-.8-.02c-.22-.159-.28-.46-.04-.9a17.235,17.235,0,0,0,1.641-6.8c-.841.06-2.061.2-2.841.34a9.194,9.194,0,0,0,.18,1.18,1.72,1.72,0,0,1-.2,1.481c-.5.46-1.42.179-1.94-.381a1.628,1.628,0,0,1-.3-1.28,2.638,2.638,0,0,0-.02-.54,5.961,5.961,0,0,0-.68.12,3.052,3.052,0,0,1-1.34.32,1.824,1.824,0,0,1-1.82-1.62c-.06-.6.26-.84.96-.9.38-.02.98.121,1.42.1a10.335,10.335,0,0,0,1.161-.04,26.18,26.18,0,0,0-.521-2.661c-.079-.48.24-.98,1-.98a1.973,1.973,0,0,1,1.84,1.28,2.632,2.632,0,0,1,.08,1.5,4.462,4.462,0,0,0-.04.72c1-.06,1.94-.2,3.121-.38a3.816,3.816,0,0,0-.02-.681,16.722,16.722,0,0,0-.38-2.14c-.14-.54.219-1,.96-1a2,2,0,0,1,1.86,1.2,2.162,2.162,0,0,1,.1,1.56,2.153,2.153,0,0,0-.08.48,4.478,4.478,0,0,1,1.42-.3,1.749,1.749,0,0,1,1.661,1.2C199.056,43.028,198.7,43.608,197.7,43.708Z"/>
          <path id="パス_2717" data-name="パス 2717" d="M211.7,41.007a2.86,2.86,0,0,1-1.2,1.14,16.2,16.2,0,0,0-2.02,1.861,1.3,1.3,0,0,1,.52,1.26,22.069,22.069,0,0,0-.061,5.121c.061,1.081-.08,1.921-.9,1.921a2.083,2.083,0,0,1-1.54-.86,2.057,2.057,0,0,1-.14-1.6,28.909,28.909,0,0,0,.12-4.021c-.48.38-1.14.921-1.661,1.32a11.005,11.005,0,0,1-2.34,1.341.787.787,0,0,1-.92-.14.656.656,0,0,1,.12-.84c.08-.08,3.621-3.721,4.181-4.3.74-.8,2.08-2.381,2.26-2.6.481-.6.921-1.18,1.541-2.06.44-.6,1.38-.52,1.9.36A2.217,2.217,0,0,1,211.7,41.007Z"/>
          <path id="パス_2718" data-name="パス 2718" d="M227.359,46.409c-.28.4-.88.46-1.62.1a28.692,28.692,0,0,0-2.981-1.02c-.54-.14-1.04-.28-1.46-.36,0,.82.02,1.921.02,2.461,0,.26.12,1.54.14,2.12.06,1.161-.16,1.92-1.02,1.92a2.09,2.09,0,0,1-1.561-.839c-.44-.6.06-2.2.1-3.221a54.451,54.451,0,0,0-.1-5.8c-.08-1.141-.4-3.221-.44-3.5-.06-.54.36-.92,1.041-.92a2.163,2.163,0,0,1,2.04,1.38,5.975,5.975,0,0,1-.24,2.5c-.04.48-.02.9-.04,1.74a35.07,35.07,0,0,0,3.541.86,15.245,15.245,0,0,1,1.54.32,1.5,1.5,0,0,1,1.1,1.1A1.41,1.41,0,0,1,227.359,46.409Z"/>
          <path id="パス_2719" data-name="パス 2719" d="M234.815,40.607c-.12-1.72-.66-3.981,1.081-4,1.72-.02,1.7,1.441,1.7,2.961,0,1.18-.26,4.2-.34,5-.14,1.3-.12,2.441-1.24,2.441-.98,0-.88-1.7-.92-2.1C235.016,44.028,234.9,41.587,234.815,40.607Zm2.241,11.042a1.894,1.894,0,0,1-.56.08,1.388,1.388,0,0,1-1.4-.959,2.009,2.009,0,0,1,.54-2.381,2.038,2.038,0,0,1,1.02-.26,1.647,1.647,0,0,1,1.72,1.52A1.843,1.843,0,0,1,237.056,51.649Z"/>
          <path id="パス_2720" data-name="パス 2720" d="M315.223,40.933c-.567,0-3.023,0-4.535.162a13.835,13.835,0,0,1,.4,2.969c1.053,1.512.837,4.967-.512,7.423a9.918,9.918,0,0,1-3.456,3.86.939.939,0,0,1-1.241-.054c-.243-.27-.3-.755.242-1.458a12.827,12.827,0,0,0,2.241-4.318c-2.186,1.08-5.263.594-5.938-2.16A3.63,3.63,0,0,1,303,44.415a4.589,4.589,0,0,1,3.589-1.511,3.548,3.548,0,0,1,1.836.431,8.8,8.8,0,0,0-.486-2.078c-.513,0-1.943.189-3.536.324-.783.081-2.106.3-2.834.3a2.626,2.626,0,0,1-2.321-2.483c0-1.08.674-1.269,2.213-.945a31.445,31.445,0,0,0,3.131.486c1.026.107,2.861.162,2.888.162-.08-.432-.269-1.053-.4-1.62-.216-.756-.378-1.134-.567-1.916-.161-.594.189-1.242,1.35-1.242a2.591,2.591,0,0,1,2.511,1.593,2.906,2.906,0,0,1,.027,1.592,4.932,4.932,0,0,0-.055,1.349,15.236,15.236,0,0,0,3.374-.836c1.323-.3,2.025-.324,2.754.189a2.051,2.051,0,0,1,.89,1.322C317.41,40.069,317.14,40.933,315.223,40.933Zm-6.64,5.534c0-.783-.891-1.323-1.7-1.323-1.052,0-1.835.621-1.835,1.458,0,.809.675,1.349,1.62,1.349C307.665,47.951,308.583,47.384,308.583,46.467Z"/>
          <path id="パス_2721" data-name="パス 2721" d="M333.193,53.944c-2.456.864-5.884.3-6.991-1.4a3.141,3.141,0,0,1-.081-3.509,4,4,0,0,1,3.995-1.808,10.093,10.093,0,0,1,4.1,1.349c.27-2.051-2.025-3.266-4.022-3.32a6.958,6.958,0,0,0-3.563,1.323c-.621.459-1.026.971-1.674,1-.809.054-1.538-.917-1.349-2.186.162-1.215,1.106-1.215,2.159-1.97.135-.082.486-.352.783-.567.918-.648,3.806-2.7,4.832-3.59.431-.378.918-.864.918-.864a2.938,2.938,0,0,0-1.269-.027,16.7,16.7,0,0,0-2.618.648c-.864.189-1.134.648-2.43.648a2.112,2.112,0,0,1-1.781-.837c-1.134-1.161-1.215-3.293.3-3.051a22.053,22.053,0,0,0,5.156.189c1.431-.081,2.7-.593,3.833-.567,1,.055,2.645,1.458,2.268,2.538-.324.945-1.3,1.376-2.349,2.187a27.947,27.947,0,0,0-3.536,2.726,6.306,6.306,0,0,1,6.046,1.7A6.006,6.006,0,0,1,333.193,53.944Zm.378-3.239a7.468,7.468,0,0,0-4.508-1.026c-.54.135-.81.459-.836.81-.027.431.3,1.025,1.241,1.16C330.872,51.838,332.734,51.676,333.571,50.705Z"/>
          <path id="パス_2722" data-name="パス 2722" d="M362.851,38.315a7.473,7.473,0,0,1-.783,1.862,3.734,3.734,0,0,1-1.485,1.485c-.863.432-1.646.027-1.349-1.053a8.308,8.308,0,0,0,.35-2.456h-.944c-1.539-.027-9.178.054-12.633.108a7.544,7.544,0,0,1,.351,1.863A1.965,1.965,0,0,1,344.6,42.31c-2.052.162-2.133-1.728-1.728-3.428a21.063,21.063,0,0,0,.3-2.538c.135-1.052,1.134-1.16,1.727-.405a9.638,9.638,0,0,1,.648,1.188c1.161,0,3.644,0,6.155-.027a27.635,27.635,0,0,0-.378-2.807,1.134,1.134,0,0,1,1.188-1.377,2.292,2.292,0,0,1,2.24,1.431,3.382,3.382,0,0,1,.054,1.647c-.054.242-.081.674-.135,1.052,1.862-.027,3.428-.081,4.049-.108a3.215,3.215,0,0,0,1.646-.647,2.27,2.27,0,0,1,1.89-.811,2.123,2.123,0,0,1,1.512,1.566A1.056,1.056,0,0,1,362.851,38.315Zm-17.33,10.824a.661.661,0,0,1-.081-1.3A17,17,0,0,0,350,45.333a1.029,1.029,0,0,1,1.647.729,1.651,1.651,0,0,1-1.4,1.889c-.324.081-.837.459-1.7.783A5.919,5.919,0,0,1,345.521,49.139Zm9.259-.189a8.715,8.715,0,0,1-.756,4.292c-.891,1.619-1.97,1.538-2.564,1.377-.864-.27-.945-1.215-1.134-1.62-.27-.567-.4-1.026,0-1.323a.683.683,0,0,1,.891.054c.3.243.512.432.621.513a8.536,8.536,0,0,0,.216-1.835,2.066,2.066,0,0,1-1.188.7c-.324.055-.972.459-1.863.756a5.282,5.282,0,0,1-2.915.243.677.677,0,0,1-.081-1.322,13.77,13.77,0,0,0,4.724-2.295.958.958,0,0,1,1.376.216c0-.378,0-.756-.026-1.08a19.931,19.931,0,0,0-.648-3.482,20.047,20.047,0,0,1-2.619,1.08,6.516,6.516,0,0,1-2.969.3c-1.026-.216-.917-1.188-.162-1.431a15.338,15.338,0,0,0,4.535-2.321,5,5,0,0,1-1.107.189,1.172,1.172,0,0,1-1.133-.864.742.742,0,0,1,.891-.918,11.015,11.015,0,0,0,1.916.3,17.735,17.735,0,0,0,2.591-.135,3.548,3.548,0,0,0,1.323-.648,1.851,1.851,0,0,1,3.4.756c.135.81-.54,1.431-1.782,1.3-.567-.054-1.619-.216-2.456-.216a6.844,6.844,0,0,0-.7.027v.054a1.661,1.661,0,0,1-.027,1.026A16.736,16.736,0,0,1,354.78,48.95Zm4.13-1.836a3.093,3.093,0,0,1-.54.189,16.706,16.706,0,0,0,2.24,2.484,1.11,1.11,0,0,1,.189,1.566,2.345,2.345,0,0,1-2.942.242,2.532,2.532,0,0,1-1.214-1.512,4.717,4.717,0,0,0-.514-1.16,9.336,9.336,0,0,1-.944-4.373c.135-1.026,1.188-1.08,1.592-.189.162.378.351.783.54,1.188a9.8,9.8,0,0,0,1.431-1.647,1.3,1.3,0,0,1,2.105-.162,1.8,1.8,0,0,1-.728,2.754A11.783,11.783,0,0,1,358.91,47.114Z"/>
          <path id="パス_2723" data-name="パス 2723" d="M371.7,44.2c-.324,2.862-1.7,6.1-3.266,7.126a.817.817,0,0,1-1.242-1.025,24.274,24.274,0,0,0,1.485-6.479,31.106,31.106,0,0,0,.027-4.589,18.487,18.487,0,0,0-.3-1.916,1.22,1.22,0,0,1,1-1.647,2.364,2.364,0,0,1,2.4,1.026,1.455,1.455,0,0,1,.189.351c.324,0,2.483-.027,4.778-.054-.135-1.053-.27-1.43-.351-2.024a1.156,1.156,0,0,1,1.187-1.377,2.293,2.293,0,0,1,2.241,1.43,2.84,2.84,0,0,1,.054,1.647c0,.081-.027.189-.027.27,1-.027,1.835-.081,2.321-.108a3.427,3.427,0,0,0,1.647-.621,2.2,2.2,0,0,1,1.889-.836,2.156,2.156,0,0,1,1.512,1.592c.162.81-.54,1.431-1.782,1.3-.567-.054-1.862-.162-2.321-.189a6.139,6.139,0,0,0-.783-.027c-1.7-.027-7.936.054-10.176.135-.027.459-.108.891-.162,1.349C371.97,39.907,371.889,42.715,371.7,44.2Zm4.1,7.423c-.3.54-.918.864-2.024,1.512a1.683,1.683,0,0,1-2.538-.648c-.4-.972.324-1.62,1.7-1.539a5.685,5.685,0,0,0,1.835-.35C375.506,50.38,376.289,50.731,375.8,51.622Zm-3.347-2.672a.676.676,0,0,1,.216-1.3,5.009,5.009,0,0,1,2.564.216c.945.459.918.945.891,1.242a1.25,1.25,0,0,1-2.051.81A15.208,15.208,0,0,0,372.456,48.95Zm14.252-4.994c-.3-.027-.729-.081-1.187-.108a.209.209,0,0,1,.026.135,3.236,3.236,0,0,1-.35,2.645c-.028.028-.028.055-.054.081a.987.987,0,0,1,.3.352,1.58,1.58,0,0,1-1.079,2.267c-.3.081-.567.216-.972.324a3.024,3.024,0,0,1-1.7.027.681.681,0,0,1-.134-1.323,9.2,9.2,0,0,0,1.646-1.161,1.228,1.228,0,0,1-.459-.242,1.059,1.059,0,0,1-.323-.648c-.7.027-1.485.027-2.295.054.054,1.862.135,3.644.189,4.1a7.443,7.443,0,0,1,.027,2.187c-.162,1.053-.675,1.862-1.862,1.862-1.377-.027-1.593-1.052-1.89-1.538-.216-.378-.81-1.188-.459-1.647.432-.594,1.08-.189,1.539.189.026-.135.026-2.7,0-5.128-.972.027-1.728.053-1.89.081a9.274,9.274,0,0,1-1.431.242,1.169,1.169,0,0,1-1.133-.863.751.751,0,0,1,.917-.918,10.638,10.638,0,0,0,1.917.3c.081.027.729,0,1.62,0-.027-.513-.027-1-.055-1.431-1.538.054-2.807.081-3.049.135-.837.108-.729.243-1.35.216a1.142,1.142,0,0,1-1.134-.864.749.749,0,0,1,.891-.917,10.962,10.962,0,0,0,2.132.351c.135,0,1.134,0,2.43-.027-.028-.378-.108-.864-.189-1.323-.864.027-1.593.054-1.809.081a9.6,9.6,0,0,1-1.4.243A1.12,1.12,0,0,1,373,40.825a.742.742,0,0,1,.891-.918,10.836,10.836,0,0,0,1.916.324c.108,0,.648,0,1.35-.027a1.306,1.306,0,0,1-.054-.324c-.243-1.376.4-1.781,1.3-1.754a1.807,1.807,0,0,1,1.943,1.62,2.03,2.03,0,0,1,.027.4c.378-.026.675-.054.81-.054a3.171,3.171,0,0,0,1.43-.675,2.179,2.179,0,0,1,1.863-.809,2.152,2.152,0,0,1,1.538,1.565,1.011,1.011,0,0,1-.648,1.161c0,.108-.026.216-.026.324a1.872,1.872,0,0,1,1.619-.594,2.156,2.156,0,0,1,1.539,1.566C388.625,43.47,387.95,44.091,386.708,43.956ZM380.122,45.2c.81,0,1.62,0,2.295-.027a10.869,10.869,0,0,0,.107-1.431c-.674,0-1.511,0-2.4.028Zm.027-2.537c.864-.027,1.673-.055,2.348-.081a10.883,10.883,0,0,0-.08-1.269,3.907,3.907,0,0,0-.756-.027h-1.35a5.629,5.629,0,0,1-.108.7C380.176,42.175,380.176,42.391,380.149,42.661Zm6.775,9.231a1.933,1.933,0,0,1-1.781,1.593,2.053,2.053,0,0,1-1.566-.378,5.411,5.411,0,0,0-.918-.513,3.306,3.306,0,0,1-1.295-1.35c-.351-.783.135-1.295.836-1a7.774,7.774,0,0,0,1.7.485c.62.108,1.161.135,2.132.216A.916.916,0,0,1,386.924,51.892Z"/>
        </g>
        <g id="グループ_9660" data-name="グループ 9660">
          <path id="パス_2724" data-name="パス 2724" d="M260.369,55.3c.049-.2.034-.281-.148-.344.015-.133.207-.088.246-.2.193.062.146-.116.147-.246.046-.011.1.014.148,0s.082-.033.148-.049c.043-.011.031-.043.049-.049.309-.107.667-.217.984-.345.048-.019.128-.019.2-.049.03-.013.074-.088.1-.1.073-.032.119-.022.2-.05.011,0,.013-.04.049-.049a.751.751,0,0,0,.246-.1c.037-.024.07-.082.1-.1.064-.037.128-.014.2-.049.035-.017.069-.079.1-.1a1.393,1.393,0,0,0,.147-.1c.032-.025.071-.079.1-.1s.085.016.1,0,.035-.089.049-.1c.053-.032.1-.015.148-.05s.057-.119.1-.147.105-.016.148-.049.057-.119.1-.148.105-.016.148-.049.057-.116.1-.148.1-.017.148-.049c.016-.012.034-.092.049-.1a.636.636,0,0,0,.2-.1c.041-.033.057-.115.1-.147.072-.056.3-.116.3-.3a2.649,2.649,0,0,0,.688-.639c.037-.039.116-.057.148-.1s.018-.111.049-.147.115-.057.148-.1.017-.11.049-.148.115-.057.148-.1.017-.11.049-.148c.069-.085.176-.112.246-.2.014-.017-.017-.085,0-.1s.087-.033.1-.05c.026-.037.019-.1.049-.147.013-.017.092-.034.1-.049a1.117,1.117,0,0,1,.1-.2c.035-.055.067-.089.1-.148a1.5,1.5,0,0,1,.049-.147c.012-.02.091-.033.1-.05s-.014-.074,0-.1.08-.069.1-.1.026-.064.049-.1.041-.036.049-.049a.5.5,0,0,0,.1-.2,2.461,2.461,0,0,1,.246-.541c.046-.1.1-.205.148-.3.021-.041.022-.1.049-.148.014-.026.09-.077.1-.1.038-.1.01-.226.049-.345.008-.025.093-.079.1-.1.014-.045-.011-.1,0-.148a5.933,5.933,0,0,0,.1-.639,5.256,5.256,0,0,0-.05-2.067,1.2,1.2,0,0,1-.1-.295.777.777,0,0,0-.1-.246,4.1,4.1,0,0,1-.148-.443,1.515,1.515,0,0,0-.1-.246c-.046-.106-.1-.23-.148-.344-.023-.05-.094-.12-.1-.2s-.1-.077-.1-.147-.026-.054-.049-.1c-.033-.063-.01-.135-.049-.2-.023-.035-.071-.053-.1-.1s-.1-.093-.1-.148-.091-.077-.148-.147c-.013-.017.017-.085,0-.1a1.6,1.6,0,0,1-.246-.2c-.046-.055-.051-.143-.1-.2a3.338,3.338,0,0,1-.246-.246,1.161,1.161,0,0,0-.2-.246c-.035-.027-.11-.018-.147-.049-.069-.056-.125-.14-.2-.2-.145-.116-.294-.236-.443-.345-.03-.022-.069-.08-.1-.1a1.721,1.721,0,0,1-.246-.148,1.987,1.987,0,0,0-.246-.147c-.091-.053-.2-.116-.345-.2-.031-.017-.071-.084-.1-.1-.114-.062-.274-.077-.443-.148-.03-.013-.074-.088-.1-.1s-.07.007-.1,0-.084-.034-.147-.05c0,0-.145-.045-.148-.049a1.96,1.96,0,0,0-.64-.2,3.092,3.092,0,0,0-1.623.05c-.137.038-.306.1-.443.147-.018.007,0,.047-.049.049a.664.664,0,0,0-.148,0c0,.005.005.048,0,.05a1.126,1.126,0,0,0-.295.1c-.158.105-.428.207-.64.344-.027.018.008.047-.049.05a.823.823,0,0,0-.246.1c-.061.039-.089.111-.147.148-.1.062-.187.077-.3.147-.027.018.008.046-.049.049-.089.005-.414.388-.492.492a9.514,9.514,0,0,0-.541.837c-.016.026-.046-.007-.049.049-.005.083-.027.054-.05.1s-.022.1-.049.148c-.017.032-.083.071-.1.1a2.7,2.7,0,0,0-.1.3c-.006.014-.04.009-.05.049s.012.071,0,.1-.083.071-.1.1a3.464,3.464,0,0,0-.148.492c-.026.084-.075.2-.1.295-.049.193-.04.358-.1.59a4.431,4.431,0,0,0,0,1.87c.007.017-.013.087,0,.1s.047-.006.05,0-.014.087,0,.1.046-.007.049,0-.014.086,0,.1.046-.006.049,0-.015.086,0,.1c.048.039.066.04.1.1s.061.139.1.2.112.095.148.147c.012.018-.017.085,0,.1a.415.415,0,0,1,.1.1c.042.058.108.093.147.148.054.074.052.146.1.2a3.478,3.478,0,0,0,.394.3c.065.05.151.119.246.2.027.023.075.085.1.1.094.057.2.049.3.1.026.014-.006.046.049.049a.51.51,0,0,1,.1.05c.05.023.12.094.2.1a1.84,1.84,0,0,1,.246.1c.084.032.132.024.2.05.094.037.306.082.443.147.024.011,0,.047.049.049.092.005.123.092.2.148.018.013.085-.016.1,0s-.008.045,0,.049.085-.015.1,0-.006.047,0,.05.087-.015.1,0a.335.335,0,0,0,.2.147c.015.1.1.131.148.2.113.117.312-.019.424.1.034.247.035.3-.08.394.019.091-.055.118-.1.2-.01.018.015.086,0,.1-.1.083-.088.112-.1.344,0,.032.021.177,0,.2a.351.351,0,0,0-.1.2c-.023.1,0,.094-.049.148-.073.072.046.447.049.59-.135-.051-.039.148-.1.2-.006,0-.047-.006-.05,0-.037.089-.02.194-.049.246s-.191.092-.2.2c0,0-.04.137-.049.147-.033.042-.11.013-.147.049-.016.016.016.085,0,.1s-.041-.008-.05,0c-.064.062-.086.083-.147.148-.08-.014-.085.046-.148.049-.114.017-.1.177-.147.246-.011.016-.085-.014-.1,0-.029.028.035.212-.1.2a2.312,2.312,0,0,1-.64.1c-.109-.027-.07.094-.147.1s-.063.082-.1.1-.073-.015-.1,0c-.121.067-.254.088-.345.2a.782.782,0,0,1-.443-.147c-.062.032-.137.009-.2.049-.038.025-.061.128-.1.148a.986.986,0,0,1-.2.049.638.638,0,0,1-.148.049c-.224,0-.343-.2-.541-.3-.148.112-.422.021-.591,0-.143.012-.169-.093-.246-.148-.1-.029-.323.061-.344-.049-.1.04-.111-.086-.148-.1-.057-.019-.142.025-.2,0-.024-.011,0-.047-.05-.049-.085-.005-.12-.091-.2-.148-.093-.069-.2-.093-.246-.2-.092-.072-.326,0-.393-.1-.1.023-.094-.071-.1-.148a.134.134,0,0,1-.148-.1c-.392-.1-.635-.465-.886-.788-.044-.057-.111-.093-.147-.147s-.055-.131-.1-.2c-.018-.027-.046.008-.049-.049s-.076-.062-.1-.1c-.011-.019.015-.086,0-.1s-.047.006-.05,0-.242-.486-.245-.492.014-.087,0-.1-.047.006-.05,0-.1-.191-.1-.2l-.049-.1c-.115-.214-.2-.456-.345-.688a2.46,2.46,0,0,1-.147-.394c-.046-.182-.139-.464-.2-.689a8.212,8.212,0,0,1-.246-1.673c-.007-.115.01-.239,0-.344a10.8,10.8,0,0,1-.049-1.525,6.685,6.685,0,0,1,.147-.837c.007-.036-.024-.172,0-.2,0,0,.049,0,.05,0,.008-.037-.025-.172,0-.2,0,0,.047,0,.049,0,.009-.038-.026-.171,0-.2s.033-.036.049-.1.1-.282.147-.443c.024-.072.077-.157.1-.246a1.8,1.8,0,0,1,.1-.246c.029-.073.016-.124.049-.2.011-.023.047,0,.05-.049a.452.452,0,0,1,.049-.1c.023-.05.094-.12.1-.2a.621.621,0,0,1,.1-.2c.011-.019.046-.043.049-.049.034-.068.014-.128.049-.2.017-.033.083-.071.1-.1s-.016-.086,0-.1.091-.037.1-.049c.035-.065.011-.132.049-.2.015-.026.046.007.049-.049a.534.534,0,0,1,.049-.1c.021-.03.083-.07.1-.1.037-.064.012-.13.049-.2.012-.021.091-.032.1-.049a1.253,1.253,0,0,1,.1-.246c.021-.032.079-.069.1-.1s.027-.064.049-.1c.035-.054.064-.092.1-.147s.063-.093.1-.148c.015-.023.042-.037.05-.049.018-.031.022-.114.049-.148.074-.093.236-.226.344-.344.122-.134.227-.227.345-.345s.229-.243.344-.344c.042-.037.045-.066.1-.1.031-.02.067-.027.1-.05s.067-.075.1-.1.167-.193.246-.2c.042,0,.109-.074.148-.1s.16-.193.246-.2.118-.138.2-.2c.041-.03.107-.026.148-.049s-.006-.046.049-.049c.083-.005.1-.143.2-.148.042,0,.109-.074.148-.1s.065-.027.1-.049c.08-.055.126-.1.2-.148s.174-.058.246-.1c.036-.021.067-.076.1-.1a.76.76,0,0,1,.1-.049c.078-.043.162-.056.246-.1.032-.017.07-.083.1-.1s.086.015.1,0-.007-.046,0-.049a7.661,7.661,0,0,1,2.066-.689c.089-.017.183-.025.3-.049.238-.05.564-.044.886-.1a7.564,7.564,0,0,1,1.869.049c.157.019.3.023.443.049a9.117,9.117,0,0,1,1.033.295c.124.04.276.054.394.1.019.007,0,.046.049.049.108.005.133.057.246.1s.2.039.345.1c.1.04.2.106.3.147.219.1.43.184.639.295.058.031.089.067.148.1a.535.535,0,0,0,.2.1.5.5,0,0,1,.1.049,1.124,1.124,0,0,1,.148.05c.019.011.032.09.049.1s.079-.016.1,0c.041.033.058.118.1.148.017.012.085-.017.1,0s.033.087.049.1.086-.016.1,0a4.209,4.209,0,0,0,.639.492c.084.063.162.18.246.246.018.014.085-.016.1,0a1.575,1.575,0,0,0,.2.2c.09.078.168.177.246.246a2,2,0,0,1,.344.344c.033.044.065.061.1.1.057.063.152.137.2.2.014.018-.016.085,0,.1s.088.033.1.049-.016.085,0,.1.088.034.1.05-.016.085,0,.1a.631.631,0,0,1,.148.2c.016.027.046-.008.049.049a.625.625,0,0,0,.1.2c.034.054.063.092.1.147.014.024.041.037.049.05a.516.516,0,0,1,.1.2c0,.073.1.155.148.246s.1.2.147.3c.014.025.047-.006.05.049a1.5,1.5,0,0,0,.1.295c.01.023.046,0,.049.049a.5.5,0,0,0,.049.1c.036.076.057.142.1.246a1.137,1.137,0,0,1,.147.3,1.4,1.4,0,0,0,.1.246c.01.023.046-.005.049.049a1.887,1.887,0,0,0,.1.3c.008.02.047,0,.05.049a.167.167,0,0,0,0,.05.966.966,0,0,1,.049.147c.014.059.065.306.1.492,0,.005.047.01.049.049a1.443,1.443,0,0,0,0,.246,1.786,1.786,0,0,1,.05.3c.014.156.083.4.1.59.031.4,0,.824,0,1.23a9.21,9.21,0,0,1-.1,1.82c-.018.083-.028.211-.05.3,0,.012-.046,0-.049.049,0,.018.013.137,0,.147-.04.033-.034.038-.049.1,0,0-.045.144-.049.147a1.053,1.053,0,0,0-.148.3,1.518,1.518,0,0,1-.1.295c-.011.024-.047,0-.049.049,0,.012.005.038,0,.049s-.093.081-.1.1c-.013.043.018.1,0,.147-.009.022-.046,0-.049.049a1.148,1.148,0,0,1-.049.148c-.016.033-.083.07-.1.1s.015.087,0,.1-.046-.007-.049,0,.015.086,0,.1-.046-.006-.049,0,.014.087,0,.1a1.406,1.406,0,0,0-.148.246c-.014.026-.046-.007-.049.049a1.092,1.092,0,0,1-.049.147c-.021.036-.075.068-.1.1-.037.05-.047.116-.1.2-.017.027-.046-.008-.049.049,0,.083-.142.1-.148.2,0,.068-.129.124-.2.2-.2.215-.4.406-.64.639-.1.1-.174.283-.344.3.027.109-.1.07-.1.148,0,.014-.085.085-.1.1-.042.04-.107.059-.148.1-.1.091-.3.268-.443.393-.043.039-.1.059-.147.1s-.058.117-.1.147c-.017.013-.085-.016-.1,0s-.033.088-.049.1-.086-.016-.1,0-.034.088-.049.1c-.06.038-.135.01-.2.049-.037.024-.051.071-.1.1-.08.047-.143.082-.246.147-.02.013-.041.045-.049.049-.067.036-.128.014-.2.05-.027.013-.077.09-.1.1a2,2,0,0,1-.2.049c-.112.035-.238.05-.394.1-.093.028-.244.108-.344.147-.075.03-.119.02-.2.049-.114.043-.237.109-.344.148a1.282,1.282,0,0,0-.3.1c-.053.035-.236.079-.344.148-.045.029-.145.045-.246.1-.025.013.006.046-.049.049-.076,0-.151.1-.246.147a3.583,3.583,0,0,0-.345.148c-.027.017.008.046-.049.049s-.258.143-.344.148c-.026,0-.068.036-.1.049a11.133,11.133,0,0,1-1.328.393c-.1.026-.093-.005-.148.05-.005.005-.041,0-.049,0A1.6,1.6,0,0,1,260.369,55.3Z" fill-rule="evenodd"/>
        </g>
        <g id="グループ_9661" data-name="グループ 9661">
          <path id="パス_2725" data-name="パス 2725" d="M285.369,55.3c.049-.2.034-.281-.148-.344.015-.133.207-.088.246-.2.193.062.146-.116.147-.246.046-.011.1.014.148,0s.082-.033.148-.049c.043-.011.031-.043.049-.049.309-.107.667-.217.984-.345.048-.019.128-.019.2-.049.03-.013.074-.088.1-.1.073-.032.119-.022.2-.05.011,0,.013-.04.049-.049a.751.751,0,0,0,.246-.1c.037-.024.07-.082.1-.1.064-.037.128-.014.2-.049.035-.017.069-.079.1-.1a1.393,1.393,0,0,0,.147-.1c.032-.025.071-.079.1-.1s.085.016.1,0,.035-.089.049-.1c.053-.032.1-.015.148-.05s.057-.119.1-.147.105-.016.148-.049.057-.119.1-.148.105-.016.148-.049.057-.116.1-.148.1-.017.148-.049c.016-.012.034-.092.049-.1a.636.636,0,0,0,.2-.1c.041-.033.057-.115.1-.147.072-.056.3-.116.3-.3a2.649,2.649,0,0,0,.688-.639c.037-.039.116-.057.148-.1s.018-.111.049-.147.115-.057.148-.1.017-.11.049-.148.115-.057.148-.1.017-.11.049-.148c.069-.085.176-.112.246-.2.014-.017-.017-.085,0-.1s.087-.033.1-.05c.026-.037.019-.1.049-.147.013-.017.092-.034.1-.049a1.117,1.117,0,0,1,.1-.2c.035-.055.067-.089.1-.148a1.5,1.5,0,0,1,.049-.147c.012-.02.091-.033.1-.05s-.014-.074,0-.1.08-.069.1-.1.026-.064.049-.1.041-.036.049-.049a.5.5,0,0,0,.1-.2,2.461,2.461,0,0,1,.246-.541c.046-.1.1-.205.148-.3.021-.041.022-.1.049-.148.014-.026.09-.077.1-.1.038-.1.01-.226.049-.345.008-.025.093-.079.1-.1.014-.045-.011-.1,0-.148a5.933,5.933,0,0,0,.1-.639,5.256,5.256,0,0,0-.05-2.067,1.2,1.2,0,0,1-.1-.295.777.777,0,0,0-.1-.246,4.1,4.1,0,0,1-.148-.443,1.515,1.515,0,0,0-.1-.246c-.046-.106-.1-.23-.148-.344-.023-.05-.094-.12-.1-.2s-.1-.077-.1-.147-.026-.054-.049-.1c-.033-.063-.01-.135-.049-.2-.023-.035-.071-.053-.1-.1s-.1-.093-.1-.148-.091-.077-.148-.147c-.013-.017.017-.085,0-.1a1.6,1.6,0,0,1-.246-.2c-.046-.055-.051-.143-.1-.2a3.338,3.338,0,0,1-.246-.246,1.161,1.161,0,0,0-.2-.246c-.035-.027-.11-.018-.147-.049-.069-.056-.125-.14-.2-.2-.145-.116-.294-.236-.443-.345-.03-.022-.069-.08-.1-.1a1.721,1.721,0,0,1-.246-.148,1.987,1.987,0,0,0-.246-.147c-.091-.053-.2-.116-.345-.2-.031-.017-.071-.084-.1-.1-.114-.062-.274-.077-.443-.148-.03-.013-.074-.088-.1-.1s-.07.007-.1,0-.084-.034-.147-.05c0,0-.145-.045-.148-.049a1.96,1.96,0,0,0-.64-.2,3.092,3.092,0,0,0-1.623.05c-.137.038-.306.1-.443.147-.018.007,0,.047-.049.049a.664.664,0,0,0-.148,0c0,.005.005.048,0,.05a1.126,1.126,0,0,0-.295.1c-.158.105-.428.207-.64.344-.027.018.008.047-.049.05a.823.823,0,0,0-.246.1c-.061.039-.089.111-.147.148-.1.062-.187.077-.3.147-.027.018.008.046-.049.049-.089.005-.414.388-.492.492a9.514,9.514,0,0,0-.541.837c-.016.026-.046-.007-.049.049-.005.083-.027.054-.05.1s-.022.1-.049.148c-.017.032-.083.071-.1.1a2.7,2.7,0,0,0-.1.3c-.006.014-.04.009-.05.049s.012.071,0,.1-.083.071-.1.1a3.464,3.464,0,0,0-.148.492c-.026.084-.075.2-.1.295-.049.193-.04.358-.1.59a4.431,4.431,0,0,0,0,1.87c.007.017-.013.087,0,.1s.047-.006.05,0-.014.087,0,.1.046-.007.049,0-.014.086,0,.1.046-.006.049,0-.015.086,0,.1c.048.039.066.04.1.1s.061.139.1.2.112.095.148.147c.012.018-.017.085,0,.1a.415.415,0,0,1,.1.1c.042.058.108.093.147.148.054.074.052.146.1.2a3.478,3.478,0,0,0,.394.3c.065.05.151.119.246.2.027.023.075.085.1.1.094.057.2.049.3.1.026.014-.006.046.049.049a.51.51,0,0,1,.1.05c.05.023.12.094.2.1a1.84,1.84,0,0,1,.246.1c.084.032.132.024.2.05.094.037.306.082.443.147.024.011,0,.047.049.049.092.005.123.092.2.148.018.013.085-.016.1,0s-.008.045,0,.049.085-.015.1,0-.006.047,0,.05.087-.015.1,0a.335.335,0,0,0,.2.147c.015.1.1.131.148.2.113.117.312-.019.424.1.034.247.035.3-.08.394.019.091-.055.118-.1.2-.01.018.015.086,0,.1-.1.083-.088.112-.1.344,0,.032.021.177,0,.2a.351.351,0,0,0-.1.2c-.023.1,0,.094-.049.148-.073.072.046.447.049.59-.135-.051-.039.148-.1.2-.006,0-.047-.006-.05,0-.037.089-.02.194-.049.246s-.191.092-.2.2c0,0-.04.137-.049.147-.033.042-.11.013-.147.049-.016.016.016.085,0,.1s-.041-.008-.05,0c-.064.062-.086.083-.147.148-.08-.014-.085.046-.148.049-.114.017-.1.177-.147.246-.011.016-.085-.014-.1,0-.029.028.035.212-.1.2a2.312,2.312,0,0,1-.64.1c-.109-.027-.07.094-.147.1s-.063.082-.1.1-.073-.015-.1,0c-.121.067-.254.088-.345.2a.782.782,0,0,1-.443-.147c-.062.032-.137.009-.2.049-.038.025-.061.128-.1.148a.986.986,0,0,1-.2.049.638.638,0,0,1-.148.049c-.224,0-.343-.2-.541-.3-.148.112-.422.021-.591,0-.143.012-.169-.093-.246-.148-.1-.029-.323.061-.344-.049-.1.04-.111-.086-.148-.1-.057-.019-.142.025-.2,0-.024-.011,0-.047-.05-.049-.085-.005-.12-.091-.2-.148-.093-.069-.2-.093-.246-.2-.092-.072-.326,0-.393-.1-.1.023-.094-.071-.1-.148a.134.134,0,0,1-.148-.1c-.392-.1-.635-.465-.886-.788-.044-.057-.111-.093-.147-.147s-.055-.131-.1-.2c-.018-.027-.046.008-.049-.049s-.076-.062-.1-.1c-.011-.019.015-.086,0-.1s-.047.006-.05,0-.242-.486-.245-.492.014-.087,0-.1-.047.006-.05,0-.1-.191-.1-.2l-.049-.1c-.115-.214-.2-.456-.345-.688a2.457,2.457,0,0,1-.147-.394c-.046-.182-.139-.464-.2-.689a8.215,8.215,0,0,1-.246-1.673c-.007-.115.01-.239,0-.344a10.8,10.8,0,0,1-.049-1.525,6.685,6.685,0,0,1,.147-.837c.007-.036-.024-.172,0-.2,0,0,.049,0,.05,0,.008-.037-.025-.172,0-.2,0,0,.047,0,.049,0,.009-.038-.026-.171,0-.2s.033-.036.049-.1.1-.282.147-.443c.024-.072.077-.157.1-.246a1.8,1.8,0,0,1,.1-.246c.029-.073.016-.124.049-.2.011-.023.047,0,.05-.049a.453.453,0,0,1,.049-.1c.023-.05.094-.12.1-.2a.622.622,0,0,1,.1-.2c.011-.019.046-.043.049-.049.034-.068.014-.128.049-.2.017-.033.083-.071.1-.1s-.016-.086,0-.1.091-.037.1-.049c.035-.065.011-.132.049-.2.015-.026.046.007.049-.049a.533.533,0,0,1,.049-.1c.021-.03.083-.07.1-.1.037-.064.012-.13.049-.2.012-.021.091-.032.1-.049a1.253,1.253,0,0,1,.1-.246c.021-.032.079-.069.1-.1s.027-.064.049-.1c.035-.054.064-.092.1-.147s.063-.093.1-.148c.015-.023.042-.037.05-.049.018-.031.022-.114.049-.148.074-.093.236-.226.344-.344.122-.134.227-.227.345-.345s.229-.243.344-.344c.042-.037.045-.066.1-.1.031-.02.067-.027.1-.05s.067-.075.1-.1.167-.193.246-.2c.042,0,.109-.074.148-.1s.16-.193.246-.2.118-.138.2-.2c.041-.03.107-.026.148-.049.026-.014-.006-.046.049-.049.083-.005.1-.143.2-.148.042,0,.109-.074.148-.1s.065-.027.1-.049c.08-.055.126-.1.2-.148s.174-.058.246-.1c.036-.021.067-.076.1-.1a.76.76,0,0,1,.1-.049c.078-.043.162-.056.246-.1.032-.017.07-.083.1-.1s.086.015.1,0-.007-.046,0-.049a7.661,7.661,0,0,1,2.066-.689c.089-.017.183-.025.3-.049.238-.05.564-.044.886-.1a7.564,7.564,0,0,1,1.869.049c.157.019.3.023.443.049a9.117,9.117,0,0,1,1.033.295c.124.04.276.054.394.1.019.007,0,.046.049.049.108.005.133.057.246.1s.2.039.345.1c.1.04.2.106.3.147.219.1.43.184.639.295.058.031.089.067.148.1a.535.535,0,0,0,.2.1.5.5,0,0,1,.1.049,1.124,1.124,0,0,1,.148.05c.019.011.032.09.049.1s.079-.016.1,0c.041.033.058.118.1.148.017.012.085-.017.1,0s.033.087.049.1.086-.016.1,0a4.209,4.209,0,0,0,.639.492c.084.063.162.18.246.246.018.014.085-.016.1,0a1.575,1.575,0,0,0,.2.2c.09.078.168.177.246.246a2,2,0,0,1,.344.344c.033.044.065.061.1.1.057.063.152.137.2.2.014.018-.016.085,0,.1s.088.033.1.049-.016.085,0,.1.088.034.1.05-.016.085,0,.1a.631.631,0,0,1,.148.2c.016.027.046-.008.049.049a.625.625,0,0,0,.1.2c.034.054.063.092.1.147.014.024.041.037.049.05a.516.516,0,0,1,.1.2c0,.073.1.155.148.246s.1.2.147.3c.014.025.047-.006.05.049a1.5,1.5,0,0,0,.1.295c.01.023.046,0,.049.049a.5.5,0,0,0,.049.1c.036.076.057.142.1.246a1.137,1.137,0,0,1,.147.3,1.4,1.4,0,0,0,.1.246c.01.023.046-.005.049.049a1.887,1.887,0,0,0,.1.3c.008.02.047,0,.05.049a.167.167,0,0,0,0,.05.966.966,0,0,1,.049.147c.014.059.065.306.1.492,0,.005.047.01.049.049a1.443,1.443,0,0,0,0,.246,1.786,1.786,0,0,1,.05.3c.014.156.083.4.1.59.031.4,0,.824,0,1.23a9.21,9.21,0,0,1-.1,1.82c-.018.083-.028.211-.05.3,0,.012-.046,0-.049.049,0,.018.013.137,0,.147-.04.033-.034.038-.049.1,0,0-.045.144-.049.147a1.053,1.053,0,0,0-.148.3,1.518,1.518,0,0,1-.1.295c-.011.024-.047,0-.049.049,0,.012.005.038,0,.049s-.093.081-.1.1c-.013.043.018.1,0,.147-.009.022-.046,0-.049.049a1.148,1.148,0,0,1-.049.148c-.016.033-.083.07-.1.1s.015.087,0,.1-.046-.007-.049,0,.015.086,0,.1-.046-.006-.049,0,.014.087,0,.1a1.406,1.406,0,0,0-.148.246c-.014.026-.046-.007-.049.049a1.092,1.092,0,0,1-.049.147c-.021.036-.075.068-.1.1-.037.05-.047.116-.1.2-.017.027-.046-.008-.049.049,0,.083-.142.1-.148.2,0,.068-.129.124-.2.2-.2.215-.4.406-.64.639-.1.1-.174.283-.344.3.027.109-.1.07-.1.148,0,.014-.085.085-.1.1-.042.04-.107.059-.148.1-.1.091-.3.268-.443.393-.043.039-.1.059-.147.1s-.058.117-.1.147c-.017.013-.085-.016-.1,0s-.033.088-.049.1-.086-.016-.1,0-.034.088-.049.1c-.06.038-.135.01-.2.049-.037.024-.051.071-.1.1-.08.047-.143.082-.246.147-.02.013-.041.045-.049.049-.067.036-.128.014-.2.05-.027.013-.077.09-.1.1a2,2,0,0,1-.2.049c-.112.035-.238.05-.394.1-.093.028-.244.108-.344.147-.075.03-.119.02-.2.049-.114.043-.237.109-.344.148a1.282,1.282,0,0,0-.3.1c-.053.035-.236.079-.344.148-.045.029-.145.045-.246.1-.025.013.006.046-.049.049-.076,0-.151.1-.246.147a3.583,3.583,0,0,0-.345.148c-.027.017.008.046-.049.049s-.258.143-.344.148c-.026,0-.068.036-.1.049a11.133,11.133,0,0,1-1.328.393c-.1.026-.093-.005-.148.05-.005.005-.041,0-.049,0A1.6,1.6,0,0,1,285.369,55.3Z" fill-rule="evenodd"/>
        </g>
      </g>
    </g>
  </g>
</svg>
